<?xml version="1.0" encoding="utf-8"?><svg viewBox="0 0 636 587" xmlns="http://www.w3.org/2000/svg" xmlns:xlink="http://www.w3.org/1999/xlink"><style>:root>svg{display:none}:root>svg:target{display:block}</style><svg fill="none" viewBox="0 0 636 587" id="background-img--1" xmlns="http://www.w3.org/2000/svg"><path fill-rule="evenodd" clip-rule="evenodd" d="M139.759 15.792c107.162-71.61 506.938 119.445 496.022 190.951-10.917 71.506-55.204 368.281-163.16 379.376-107.956 11.095-362.541-84.451-440.995-180.506-78.455-96.054.97-318.211 108.133-389.821z" fill="url(#apaint0_linear)"/><defs><linearGradient id="apaint0_linear" x1="318" y1="0" x2="318" y2="587" gradientUnits="userSpaceOnUse"><stop stop-color="#00A9AA"/><stop offset="1" stop-color="#00C66D"/></linearGradient></defs></svg><svg fill="none" viewBox="0 0 234 182" id="img--learner" xmlns="http://www.w3.org/2000/svg"><path d="M68.368 0L31.1 20.186a9.48 9.48 0 11-16.665 9.027L1.728 36.096l32.915 60.769 66.64-36.096L68.368 0z" fill="#F2F2F2"/><path d="M22.335 32.64a7.694 7.694 0 100-15.386 7.694 7.694 0 000 15.387z" fill="url(#bpaint0_linear)"/><path d="M161.948 162.683l40.295-13.144a9.464 9.464 0 01.406-7.375 9.485 9.485 0 019.318-5.279 9.483 9.483 0 018.294 6.777L234 139.18l-21.432-65.703-72.051 23.502 21.431 65.704z" fill="#F2F2F2"/><path d="M211.721 154.128a7.694 7.694 0 100-15.387 7.694 7.694 0 000 15.387z" fill="url(#bpaint1_linear)"/><path d="M213.309 36.046H27.269v84.521h186.04V36.046z" fill="#3F3D56"/><path d="M210.24 39.115H30.338v76.73H210.24v-76.73z" fill="#fff"/><path d="M191.943 112.186h-17.471v5.902h17.471v-5.902z" fill="#3F3D56"/><path d="M173.528 116.671h-12.749v1.653h12.749v-1.653z" fill="url(#bpaint2_linear)"/><path d="M44.976 68.154h68.702l10.652 5.19 16.971 8.268 11.096-20.776h31.401" stroke="#3F3D56" stroke-width="2" stroke-miterlimit="10"/><path d="M71.99 68.155l5.094 12.04h12.513M91.086 68.155l17.398-9.444h12.277" stroke="#3F3D56" stroke-width="2" stroke-miterlimit="10"/><path d="M71.89 70.28a2.125 2.125 0 100-4.25 2.125 2.125 0 000 4.25z" fill="url(#bpaint3_linear)"/><path d="M91.722 70.28a2.125 2.125 0 100-4.25 2.125 2.125 0 000 4.25z" fill="url(#bpaint4_linear)"/><path d="M124.302 73.349l1.417 21.012h12.277M147.947 69.168l-13.493-10.457h12.749M170.234 60.836l13.091 10.388h12.277" stroke="#3F3D56" stroke-width="2" stroke-miterlimit="10"/><path d="M124.303 75.473a2.125 2.125 0 10-.001-4.249 2.125 2.125 0 00.001 4.25z" fill="url(#bpaint5_linear)"/><path d="M170.104 62.96a2.125 2.125 0 100-4.25 2.125 2.125 0 000 4.25z" fill="url(#bpaint6_linear)"/><path d="M147.911 71.224a2.125 2.125 0 100-4.25 2.125 2.125 0 000 4.25z" fill="url(#bpaint7_linear)"/><path d="M77.32 82.084h12.277M191.126 21.316a3.484 3.484 0 100-6.968 3.484 3.484 0 000 6.968z" stroke="#3F3D56" stroke-width="2" stroke-miterlimit="10"/><path d="M35.886 181.833c19.82 0 35.886-2.96 35.886-6.611s-16.067-6.611-35.886-6.611c-19.82 0-35.886 2.96-35.886 6.611s16.067 6.611 35.886 6.611z" fill="#F2F2F2"/><path d="M60.532 116.548l-6.403 3.23.415.826 6.402-3.23-.414-.826z" fill="#6C63FF"/><path d="M59.49 110.541l-.287 1.725s.431 11.937-2.733 8.198c-3.163-3.739-1.006-8.773-1.006-8.773l.862-1.438 3.164.288zM41.083 55.319s-.575 6.04-.863 6.327c-.288.288 4.314 5.753 4.314 5.753l4.027-3.74s-.288-5.464.575-6.614c.863-1.15-8.053-1.726-8.053-1.726z" fill="#FBBEBE"/><path opacity=".1" d="M41.083 55.319s-.575 6.04-.863 6.327c-.288.288 4.314 5.753 4.314 5.753l4.027-3.74s-.288-5.464.575-6.614c.863-1.15-8.053-1.726-8.053-1.726z" fill="#000"/><path d="M30.442 165.475v5.177l-2.014.288-2.876-.863.863-5.465 4.027.863z" fill="#3F3D56"/><path d="M27.853 168.064s-.863-2.301-2.301-2.013c-1.438.287-1.726 2.013-1.726 2.013s-1.15 4.314-2.876 5.752c-1.726 1.438-3.451 5.177 0 5.753 3.452.575 6.328-.863 6.328-1.151 0-.288.863-2.013 2.3-2.301 1.439-.287 2.59-.575 2.59-1.726 0-1.15-.864-2.3-.864-2.3s-.287-5.456-.862-4.742a5.733 5.733 0 00-.863 1.865l-1.726-1.15z" fill="#2F2E41"/><path d="M42.809 162.887l-1.15 4.314 2.875.575 1.438-1.438.288-3.739-3.451.288z" fill="#3F3D56"/><path d="M42.521 166.626s1.15-.863 1.726-.863h.863s0-2.013 1.438-2.013 1.15 1.438 1.15 1.438 3.164 4.889 4.027 5.752c.863.863 5.465 3.451 1.725 4.602-3.739 1.15-6.327 1.15-8.053-.863 0 0-1.725-.863-2.876-.863-1.15 0-2.588-.575-2.588-1.438s.862-2.588.862-2.588.576-5.178.863-4.602c.288.575.863 1.438.863 1.438z" fill="#2F2E41"/><path d="M30.154 96.735v9.492s-3.164 18.407-3.164 24.447c0 6.04-4.89 34.801-2.589 35.377 2.301.575 7.766 1.438 8.054.575.287-.863 2.3-28.186 2.588-28.474.288-.288 6.328-23.009 6.328-23.009l1.15.287.575 25.886s-2.876 23.297-1.438 23.297 7.478-.288 7.478-2.014c0-1.725 3.164-33.651 3.164-33.651s3.739-25.31 2.3-27.898c-1.437-2.589-1.437-4.027-1.437-4.027l-23.01-.288z" fill="#2F2E41"/><path d="M45.829 59.777a5.752 5.752 0 100-11.505 5.752 5.752 0 000 11.505z" fill="#FBBEBE"/><path d="M44.534 63.947s-3.595-3.02-3.882-4.17c0 0-1.87 1.87-1.87 2.157 0 .288-8.053 1.15-10.066 3.451-2.014 2.301-3.74 7.19-3.74 7.19l4.89 9.204s.288 5.177.288 5.753c0 .575-1.438 9.779-.863 10.066.575.288 6.327 3.164 11.217 2.589 4.89-.576 9.779-1.438 11.217-1.438 1.438 0 2.588.575 2.588 0 0-.576-.863-1.726-.863-2.301 0-.576-.287-2.014-.287-2.876 0-.863-.575-2.301-.575-3.452 0-1.15 6.327-16.682 6.327-16.682s-.288-4.889-4.89-7.19c-4.601-2.3-5.176-3.164-5.176-3.164s-.09-1.725-.333-1.725c-.243 0-1.105 2.588-3.406 2.876l-.576-.288z" fill="#D0CDE1"/><path d="M29.003 102.2l2.013 3.164 5.177-1.151-3.739-4.314-3.451 2.301z" fill="#FBBEBE"/><path d="M57.19 71.138l1.725 2.3s3.451 16.682 2.876 22.722c-.575 6.04-1.15 10.642-1.15 10.642s1.15 4.314.287 4.314c-.862 0-6.04.288-6.04-.575s.576-6.328.576-6.328l-1.438-12.655-3.164-4.314 6.327-16.106z" fill="#D0CDE1"/><path d="M41.922 51.232c.352-.15.76-.028 1.137-.092.444-.075.84-.403 1.288-.362.213.04.419.106.614.2a.798.798 0 00.628.022.356.356 0 00.136-.537 1.775 1.775 0 001.022-.44.764.764 0 01.195-.146.637.637 0 01.501.078l.658.304a.832.832 0 01.376.269c.079.122.094.286.205.38.141.119.353.06.537.072a.687.687 0 01.621.67c-.002.194-.073.43.08.549.089.068.215.057.318.1.27.109.27.483.23.77-.04.288-.02.668.257.756.195.063.394-.07.596-.1.305-.044.588.146.86.292.27.146.632.245.867.046.22-.186.205-.525.145-.805a4.438 4.438 0 00-.422-1.154.732.732 0 01-.122-.36.649.649 0 01.301-.438c.333-.263.716-.528.824-.939.079-.3-.01-.618-.003-.93.008-.379.159-.756.088-1.128-.128-.675-.879-1-1.364-1.486-.666-.669-.882-1.738-1.668-2.26-.63-.418-1.452-.368-2.168-.607-.787-.263-1.42-.866-2.196-1.159a3.062 3.062 0 00-2.602.229c-.231.171-.49.303-.764.39a2.749 2.749 0 01-.697-.008 2.687 2.687 0 00-1.327.274.742.742 0 00-.372.326c-.14.309.063.791-.242.939-.142.069-.31.003-.467.006-.307.007-.543.274-.689.544a2.605 2.605 0 01-.482.777c-.375.328-1.057.382-1.155.871-.002.207.01.414.036.62-.029.432-.492.761-.468 1.195.028.5.663.744.833 1.215.129.358-.041.746-.158 1.109-.117.363-.153.828.15 1.06.118.091.27.128.391.216.313.228.31.687.275 1.072a.504.504 0 00.113.46.424.424 0 00.348.04 1.42 1.42 0 00.898-.675c.1-.166.12-.313.304-.402.124-.06.275-.006.401-.084.602-.37.395-1.426 1.133-1.74z" fill="#2F2E41"/><path d="M25.84 71.713l-.864.863S19.8 88.107 21.525 91.558c1.726 3.452 5.177 12.08 6.328 11.793 1.15-.288 5.177-2.877 5.177-3.164 0-.288-4.89-8.341-4.89-8.341s-.575-1.726-.287-2.013c.287-.288.287 0 0-.576-.288-.575-.288 0 .287-.575s.575-.575.575-.863c0-.287 1.726-7.478 1.726-7.478l-4.602-8.628z" fill="#D0CDE1"/><path d="M30.297 105.508l6.328-2.014.863 2.014-6.903 1.438-.288-1.438z" fill="#2F2E41"/><path opacity=".1" d="M30.297 105.508l6.328-2.014.863 2.014-6.903 1.438-.288-1.438zM38.926 62.078l4.89 4.026.575-.863-5.465-3.163zM48.705 63.228l-3.452 2.013.288.863 3.164-2.876z" fill="#000"/><defs><linearGradient id="bpaint0_linear" x1="22.335" y1="17.254" x2="22.335" y2="32.641" gradientUnits="userSpaceOnUse"><stop stop-color="#00A9AA"/><stop offset="1" stop-color="#00C66D"/></linearGradient><linearGradient id="bpaint1_linear" x1="211.721" y1="138.741" x2="211.721" y2="154.128" gradientUnits="userSpaceOnUse"><stop stop-color="#00A9AA"/><stop offset="1" stop-color="#00C66D"/></linearGradient><linearGradient id="bpaint2_linear" x1="167.153" y1="116.671" x2="167.153" y2="118.324" gradientUnits="userSpaceOnUse"><stop stop-color="#00A9AA"/><stop offset="1" stop-color="#00C66D"/></linearGradient><linearGradient id="bpaint3_linear" x1="71.89" y1="66.029" x2="71.89" y2="70.279" gradientUnits="userSpaceOnUse"><stop stop-color="#00A9AA"/><stop offset="1" stop-color="#00C66D"/></linearGradient><linearGradient id="bpaint4_linear" x1="91.722" y1="66.029" x2="91.722" y2="70.279" gradientUnits="userSpaceOnUse"><stop stop-color="#00A9AA"/><stop offset="1" stop-color="#00C66D"/></linearGradient><linearGradient id="bpaint5_linear" x1="124.303" y1="71.224" x2="124.303" y2="75.473" gradientUnits="userSpaceOnUse"><stop stop-color="#00A9AA"/><stop offset="1" stop-color="#00C66D"/></linearGradient><linearGradient id="bpaint6_linear" x1="170.104" y1="58.711" x2="170.104" y2="62.961" gradientUnits="userSpaceOnUse"><stop stop-color="#00A9AA"/><stop offset="1" stop-color="#00C66D"/></linearGradient><linearGradient id="bpaint7_linear" x1="147.911" y1="66.974" x2="147.911" y2="71.224" gradientUnits="userSpaceOnUse"><stop stop-color="#00A9AA"/><stop offset="1" stop-color="#00C66D"/></linearGradient></defs></svg><svg fill="none" viewBox="0 0 259 208" id="img--teacher" xmlns="http://www.w3.org/2000/svg"><path opacity=".1" d="M98.984 42.604H79.555a2.03 2.03 0 00-2.03 2.03v3.041c0 1.121.91 2.03 2.03 2.03h19.429a2.03 2.03 0 002.029-2.03v-3.042a2.03 2.03 0 00-2.03-2.029zM123.563 49.705h-19.429a2.029 2.029 0 00-2.029 2.029v3.042c0 1.12.908 2.03 2.029 2.03h19.429a2.03 2.03 0 002.029-2.03v-3.042a2.03 2.03 0 00-2.029-2.03zM123.563 39.054h-19.429a2.029 2.029 0 00-2.029 2.029v3.042c0 1.121.908 2.03 2.029 2.03h19.429a2.03 2.03 0 002.029-2.03v-3.042a2.03 2.03 0 00-2.029-2.03zM175.452 42.604h-19.428a2.029 2.029 0 00-2.029 2.03v3.041c0 1.121.908 2.03 2.029 2.03h19.428a2.029 2.029 0 002.029-2.03v-3.042c0-1.12-.908-2.029-2.029-2.029zM200.032 49.705h-19.429a2.03 2.03 0 00-2.029 2.029v3.042c0 1.12.909 2.03 2.029 2.03h19.429a2.029 2.029 0 002.029-2.03v-3.042c0-1.12-.908-2.03-2.029-2.03zM200.032 39.054h-19.429a2.03 2.03 0 00-2.029 2.029v3.042c0 1.121.909 2.03 2.029 2.03h19.429a2.029 2.029 0 002.029-2.03v-3.042c0-1.12-.908-2.03-2.029-2.03z" fill="#6C63FF"/><path opacity=".1" d="M74.404 35.503H54.975a2.03 2.03 0 00-2.029 2.03v3.042c0 1.12.909 2.03 2.03 2.03h19.428a2.03 2.03 0 002.03-2.03v-3.042a2.03 2.03 0 00-2.03-2.03z" fill="url(#cpaint0_linear)"/><path opacity=".1" d="M74.404 24.852H54.975a2.03 2.03 0 00-2.029 2.03v3.042c0 1.12.909 2.03 2.03 2.03h19.428a2.03 2.03 0 002.03-2.03v-3.042a2.03 2.03 0 00-2.03-2.03z" fill="url(#cpaint1_linear)"/><path opacity=".1" d="M98.983 31.953H79.555a2.03 2.03 0 00-2.03 2.03v3.042c0 1.12.909 2.029 2.03 2.029h19.428c1.121 0 2.029-.909 2.029-2.03v-3.042c0-1.12-.908-2.029-2.029-2.029z" fill="url(#cpaint2_linear)"/><path opacity=".1" d="M150.873 35.503h-19.429a2.03 2.03 0 00-2.029 2.03v3.042c0 1.12.909 2.03 2.029 2.03h19.429a2.03 2.03 0 002.029-2.03v-3.042a2.03 2.03 0 00-2.029-2.03z" fill="url(#cpaint3_linear)"/><path opacity=".1" d="M150.873 24.852h-19.429a2.03 2.03 0 00-2.029 2.03v3.042c0 1.12.909 2.03 2.029 2.03h19.429a2.03 2.03 0 002.029-2.03v-3.042a2.03 2.03 0 00-2.029-2.03z" fill="url(#cpaint4_linear)"/><path opacity=".1" d="M175.452 31.953h-19.429a2.03 2.03 0 00-2.029 2.03v3.042c0 1.12.909 2.029 2.029 2.029h19.429a2.029 2.029 0 002.029-2.03v-3.042c0-1.12-.908-2.029-2.029-2.029z" fill="url(#cpaint5_linear)"/><path opacity=".1" d="M74.404 10.651H54.975a2.03 2.03 0 00-2.029 2.03v3.042c0 1.12.909 2.029 2.03 2.029h19.428a2.03 2.03 0 002.03-2.03V12.68a2.03 2.03 0 00-2.03-2.029z" fill="url(#cpaint6_linear)"/><path opacity=".1" d="M98.983 17.752H79.555a2.03 2.03 0 00-2.03 2.029v3.042c0 1.12.909 2.03 2.03 2.03h19.428c1.121 0 2.029-.91 2.029-2.03v-3.042c0-1.12-.908-2.03-2.029-2.03z" fill="url(#cpaint7_linear)"/><path opacity=".1" d="M123.562 24.852h-19.428a2.03 2.03 0 00-2.03 2.03v3.042c0 1.12.909 2.03 2.03 2.03h19.428a2.029 2.029 0 002.029-2.03v-3.042c0-1.121-.908-2.03-2.029-2.03z" fill="url(#cpaint8_linear)"/><path opacity=".1" d="M74.404 0H54.975a2.03 2.03 0 00-2.029 2.03v3.042c0 1.12.909 2.029 2.03 2.029h19.428a2.03 2.03 0 002.03-2.03V2.03A2.03 2.03 0 0074.403 0z" fill="url(#cpaint9_linear)"/><path opacity=".1" d="M98.983 7.1H79.555a2.03 2.03 0 00-2.03 2.03v3.042c0 1.12.909 2.03 2.03 2.03h19.428c1.121 0 2.029-.91 2.029-2.03V9.13c0-1.12-.908-2.03-2.029-2.03z" fill="url(#cpaint10_linear)"/><path opacity=".1" d="M123.562 14.201h-19.428a2.03 2.03 0 00-2.03 2.03v3.042c0 1.12.909 2.029 2.03 2.029h19.428a2.029 2.029 0 002.029-2.03v-3.041c0-1.121-.908-2.03-2.029-2.03z" fill="url(#cpaint11_linear)"/><path opacity=".1" d="M150.873 10.651h-19.429a2.03 2.03 0 00-2.029 2.03v3.042c0 1.12.909 2.029 2.029 2.029h19.429a2.03 2.03 0 002.029-2.03V12.68a2.03 2.03 0 00-2.029-2.029z" fill="url(#cpaint12_linear)"/><path opacity=".1" d="M175.452 17.752h-19.429a2.03 2.03 0 00-2.029 2.029v3.042c0 1.12.909 2.03 2.029 2.03h19.429a2.029 2.029 0 002.029-2.03v-3.042c0-1.12-.908-2.03-2.029-2.03z" fill="url(#cpaint13_linear)"/><path opacity=".1" d="M200.031 24.852h-19.428a2.029 2.029 0 00-2.029 2.03v3.042c0 1.12.908 2.03 2.029 2.03h19.428a2.03 2.03 0 002.03-2.03v-3.042a2.03 2.03 0 00-2.03-2.03z" fill="url(#cpaint14_linear)"/><path opacity=".1" d="M150.873 0h-19.429a2.03 2.03 0 00-2.029 2.03v3.042c0 1.12.909 2.029 2.029 2.029h19.429a2.03 2.03 0 002.029-2.03V2.03A2.03 2.03 0 00150.873 0z" fill="url(#cpaint15_linear)"/><path opacity=".1" d="M175.452 7.1h-19.429a2.03 2.03 0 00-2.029 2.03v3.042c0 1.12.909 2.03 2.029 2.03h19.429a2.029 2.029 0 002.029-2.03V9.13c0-1.12-.908-2.03-2.029-2.03z" fill="url(#cpaint16_linear)"/><path opacity=".1" d="M200.031 14.201h-19.428a2.029 2.029 0 00-2.029 2.03v3.042c0 1.12.908 2.029 2.029 2.029h19.428a2.03 2.03 0 002.03-2.03v-3.041a2.03 2.03 0 00-2.03-2.03z" fill="url(#cpaint17_linear)"/><path opacity=".1" d="M74.404 126.447H54.977c-1.12 0-2.03.908-2.03 2.029v3.042c0 1.121.91 2.029 2.03 2.029h19.428c1.121 0 2.03-.908 2.03-2.029v-3.042a2.029 2.029 0 00-2.03-2.029zM150.873 126.447h-19.429a2.03 2.03 0 00-2.029 2.029v3.042a2.03 2.03 0 002.029 2.029h19.429a2.03 2.03 0 002.029-2.029v-3.042a2.03 2.03 0 00-2.029-2.029z" fill="#6C63FF"/><path opacity=".1" d="M74.404 161.95H54.975a2.03 2.03 0 00-2.029 2.029v3.043a2.03 2.03 0 002.03 2.029h19.428a2.03 2.03 0 002.03-2.029v-3.043a2.03 2.03 0 00-2.03-2.029z" fill="url(#cpaint18_linear)"/><path opacity=".1" d="M98.983 169.051H79.555c-1.121 0-2.03.908-2.03 2.029v3.042c0 1.121.909 2.029 2.03 2.029h19.428c1.121 0 2.029-.908 2.029-2.029v-3.042a2.028 2.028 0 00-2.029-2.029z" fill="url(#cpaint19_linear)"/><path opacity=".1" d="M123.562 176.152h-19.428a2.03 2.03 0 00-2.03 2.029v3.042a2.03 2.03 0 002.03 2.029h19.428a2.028 2.028 0 002.029-2.029v-3.042a2.028 2.028 0 00-2.029-2.029z" fill="url(#cpaint20_linear)"/><path opacity=".1" d="M74.404 151.299H54.975a2.03 2.03 0 00-2.029 2.029v3.043a2.03 2.03 0 002.03 2.029h19.428a2.03 2.03 0 002.03-2.029v-3.043a2.03 2.03 0 00-2.03-2.029z" fill="url(#cpaint21_linear)"/><path opacity=".1" d="M98.983 158.4H79.555c-1.121 0-2.03.908-2.03 2.029v3.042c0 1.121.909 2.029 2.03 2.029h19.428c1.121 0 2.029-.908 2.029-2.029v-3.042a2.028 2.028 0 00-2.029-2.029z" fill="url(#cpaint22_linear)"/><path opacity=".1" d="M123.562 165.501h-19.428a2.03 2.03 0 00-2.03 2.029v3.042a2.03 2.03 0 002.03 2.029h19.428a2.028 2.028 0 002.029-2.029v-3.042a2.028 2.028 0 00-2.029-2.029z" fill="url(#cpaint23_linear)"/><path opacity=".1" d="M150.873 161.95h-19.429a2.03 2.03 0 00-2.029 2.029v3.043a2.03 2.03 0 002.029 2.029h19.429a2.03 2.03 0 002.029-2.029v-3.043a2.03 2.03 0 00-2.029-2.029z" fill="url(#cpaint24_linear)"/><path opacity=".1" d="M175.452 169.051h-19.429a2.03 2.03 0 00-2.029 2.029v3.042a2.03 2.03 0 002.029 2.029h19.429a2.028 2.028 0 002.029-2.029v-3.042a2.028 2.028 0 00-2.029-2.029z" fill="url(#cpaint25_linear)"/><path opacity=".1" d="M200.031 176.152h-19.428a2.028 2.028 0 00-2.029 2.029v3.042c0 1.121.908 2.029 2.029 2.029h19.428a2.03 2.03 0 002.03-2.029v-3.042a2.03 2.03 0 00-2.03-2.029z" fill="url(#cpaint26_linear)"/><path opacity=".1" d="M150.873 151.299h-19.429a2.03 2.03 0 00-2.029 2.029v3.043a2.03 2.03 0 002.029 2.029h19.429a2.03 2.03 0 002.029-2.029v-3.043a2.03 2.03 0 00-2.029-2.029z" fill="url(#cpaint27_linear)"/><path opacity=".1" d="M175.452 158.4h-19.429a2.03 2.03 0 00-2.029 2.029v3.042a2.03 2.03 0 002.029 2.029h19.429a2.028 2.028 0 002.029-2.029v-3.042a2.028 2.028 0 00-2.029-2.029z" fill="url(#cpaint28_linear)"/><path opacity=".1" d="M200.031 165.501h-19.428a2.028 2.028 0 00-2.029 2.029v3.042c0 1.121.908 2.029 2.029 2.029h19.428a2.03 2.03 0 002.03-2.029v-3.042a2.03 2.03 0 00-2.03-2.029z" fill="url(#cpaint29_linear)"/><path opacity=".1" d="M74.404 137.098H54.975c-1.12 0-2.029.908-2.029 2.029v3.042a2.03 2.03 0 002.03 2.03h19.428a2.03 2.03 0 002.03-2.03v-3.042a2.029 2.029 0 00-2.03-2.029z" fill="url(#cpaint30_linear)"/><path opacity=".1" d="M98.983 144.198H79.555a2.03 2.03 0 00-2.03 2.03v3.042c0 1.121.909 2.029 2.03 2.029h19.428c1.121 0 2.029-.908 2.029-2.029v-3.042a2.03 2.03 0 00-2.029-2.03z" fill="url(#cpaint31_linear)"/><path opacity=".1" d="M123.562 151.299h-19.428a2.03 2.03 0 00-2.03 2.029v3.043a2.03 2.03 0 002.03 2.029h19.428a2.03 2.03 0 002.029-2.029v-3.043a2.03 2.03 0 00-2.029-2.029z" fill="url(#cpaint32_linear)"/><path opacity=".1" d="M98.983 133.547H79.555a2.03 2.03 0 00-2.03 2.03v3.042c0 1.121.909 2.029 2.03 2.029h19.428c1.121 0 2.029-.908 2.029-2.029v-3.042a2.03 2.03 0 00-2.029-2.03z" fill="url(#cpaint33_linear)"/><path opacity=".1" d="M123.562 140.648h-19.428a2.03 2.03 0 00-2.03 2.029v3.043a2.03 2.03 0 002.03 2.029h19.428a2.03 2.03 0 002.029-2.029v-3.043a2.03 2.03 0 00-2.029-2.029z" fill="url(#cpaint34_linear)"/><path opacity=".1" d="M150.873 137.098h-19.429a2.03 2.03 0 00-2.029 2.029v3.042a2.03 2.03 0 002.029 2.03h19.429a2.03 2.03 0 002.029-2.03v-3.042a2.03 2.03 0 00-2.029-2.029z" fill="url(#cpaint35_linear)"/><path opacity=".1" d="M175.452 144.198h-19.429a2.03 2.03 0 00-2.029 2.03v3.042a2.03 2.03 0 002.029 2.029h19.429a2.028 2.028 0 002.029-2.029v-3.042a2.03 2.03 0 00-2.029-2.03z" fill="url(#cpaint36_linear)"/><path opacity=".1" d="M200.031 151.299h-19.428a2.03 2.03 0 00-2.029 2.029v3.043a2.03 2.03 0 002.029 2.029h19.428a2.03 2.03 0 002.03-2.029v-3.043a2.03 2.03 0 00-2.03-2.029z" fill="url(#cpaint37_linear)"/><path opacity=".1" d="M175.452 133.547h-19.429a2.03 2.03 0 00-2.029 2.03v3.042a2.03 2.03 0 002.029 2.029h19.429a2.028 2.028 0 002.029-2.029v-3.042a2.03 2.03 0 00-2.029-2.03z" fill="url(#cpaint38_linear)"/><path opacity=".1" d="M200.032 140.648h-19.429a2.03 2.03 0 00-2.029 2.029v3.043a2.03 2.03 0 002.029 2.029h19.429a2.03 2.03 0 002.029-2.029v-3.043a2.03 2.03 0 00-2.029-2.029z" fill="#6C63FF"/><path opacity=".1" d="M131.737 207.012c66.139 0 119.755-4.402 119.755-9.832 0-5.429-53.616-9.831-119.755-9.831-66.14 0-119.756 4.402-119.756 9.831 0 5.43 53.616 9.832 119.756 9.832z" fill="url(#cpaint39_linear)"/><path d="M23.118 51.016C34.411 55.91 40.9 66.036 40.9 66.036s-11.823 2.185-23.118-2.706C6.486 58.439 0 48.31 0 48.31s11.823-2.188 23.118 2.706z" fill="url(#cpaint40_linear)"/><path d="M57.775 32.226c3.493-5.735 9.441-8.466 9.441-8.466s.273 6.538-3.209 12.257c-3.482 5.719-9.444 8.447-9.444 8.447s-.284-6.535 3.212-12.238z" fill="url(#cpaint41_linear)"/><path d="M32.098 38.363c2.499 8.92 9.386 14.791 9.386 14.791s2.838-8.595.34-17.517c-2.5-8.922-9.39-14.791-9.39-14.791s-2.838 8.595-.336 17.517z" fill="#46455B"/><path d="M229.587 37.961H34.433a1.97 1.97 0 00-1.97 1.97v95.744c0 1.088.883 1.969 1.97 1.969h195.154a1.969 1.969 0 001.969-1.969V39.93a1.97 1.97 0 00-1.969-1.969z" fill="#3F3D56"/><path opacity=".1" d="M32.464 131.636h199.092v4.039a1.97 1.97 0 01-1.969 1.969H34.433a1.97 1.97 0 01-1.97-1.969v-4.039z" fill="#000"/><path d="M65.919 124.262H52.537a.683.683 0 00-.683.683v6.008c0 .377.306.683.683.683h13.382a.683.683 0 00.683-.683v-6.008a.683.683 0 00-.683-.683z" fill="url(#cpaint42_linear)"/><path d="M80.257 130.543h-9.013a.547.547 0 000 1.093h9.013a.546.546 0 000-1.093z" fill="url(#cpaint43_linear)"/><path d="M61.727 57.455c7.207 1.33 14.56 0 21.736-.9l21.813-2.732c.882-.112 2.166-.639 2.685.44.292.603.095 1.912.117 2.605a100.61 100.61 0 010 5.735c-.098 3.654-.366 7.3-.707 10.938-.664 7.12-1.603 14.202-2.073 21.349-.24 3.637-.361 7.286-.254 10.924.025.868.06 1.737.112 2.602.057.97.491 2.409-.565 3.056-.604.372-1.792.353-2.483.462a59.164 59.164 0 01-3.299.421c-7.344.734-14.783.428-22.154.385l-22.258-.115-5.43-.03c-.49 0-2.263.295-2.566-.29-.129-.248.212-1.411.273-1.723.083-.513.174-1.026.273-1.537.633-3.592 1.382-7.161 2.135-10.728 1.62-7.647 3.278-15.332 3.944-23.143.33-3.919.112-7.873.516-11.784.189-1.816.413-5.869 2.83-6.03 2.048-.137 4.156 0 6.21 0a.41.41 0 100-.82c-1.94 0-3.88-.051-5.82-.013-1.289.024-2.185.33-2.8 1.516-1.57 3.042-1.409 7.1-1.458 10.421-.117 7.95-1.338 15.73-2.927 23.506-.8 3.914-1.663 7.814-2.458 11.73a229.124 229.124 0 00-1.06 5.629c-.153.895-.926 2.87-.246 3.692.68.822 2.772.38 3.71.385l6.515.038 12.487.071c8.067.047 16.162.273 24.227.036 3.85-.115 7.92-.273 11.669-1.194 1.117-.273 1.655-.786 1.699-1.977.066-1.846-.235-3.75-.273-5.604-.273-15.867 3.455-31.513 3.072-47.386-.024-1.079.383-3.799-.797-4.452-.53-.295-1.218-.134-1.775-.068-1.065.123-2.128.273-3.193.399l-13.833 1.726c-4.421.546-8.84 1.136-13.27 1.638-4.689.547-9.425.872-14.097 0-.516-.095-.738.694-.219.79l-.008.032z" fill="url(#cpaint44_linear)"/><path d="M53.031 67.11l54.571-2.677c.528-.027.53-.846 0-.82L53.031 66.29c-.524.025-.527.844 0 .82z" fill="url(#cpaint45_linear)"/><path d="M69.844 60.356a1.366 1.366 0 00.483 2.204c.735.336 1.598.054 2.327-.129a48.637 48.637 0 013.307-.715 45.109 45.109 0 017.398-.688c1.131-.014 2.254.038 3.384.087.82.033 1.702.098 2.395-.41.792-.579 1.049-1.71.273-2.414-1.092-.997-3.446-.418-4.708-.314a105.58 105.58 0 00-13.617 2.032c-.513.11-.297.901.219.79a107.86 107.86 0 018.955-1.541c1.478-.182 2.96-.336 4.443-.462.7-.057 1.398-.109 2.097-.15.274-.016.563-.046.842-.038.865.019.967-.137.448.91-.462.925-.315.819-1.115.789-.338 0-.677-.039-1.016-.055a45.908 45.908 0 00-6.5.167c-1.245.12-2.487.289-3.72.508a46.805 46.805 0 00-3.306.715c-.162.044-.325.082-.487.123-.597.207-1.106-.066-1.526-.82.366-.379-.21-.96-.58-.578l.004-.011z" fill="url(#cpaint46_linear)"/><path d="M79.735 72.012c-3.952-.153-8.22.915-10.823 4.096-2.037 2.488-3.198 6.757-1.04 9.559 2.318 3.004 7.403 2.474 10.47 1.194 3.245-1.366 6.795-4.182 7.77-7.705 1.215-4.4-2.731-7.726-6.841-7.775-.527 0-.527.82 0 .82 2.343.027 4.642 1.032 5.735 3.214 1.144 2.3.158 4.713-1.366 6.554-2.441 2.93-6.26 5.14-10.148 5.077-2.335-.035-4.916-.836-5.64-3.299-.595-1.996-.142-4.178.896-5.948 2.245-3.824 6.814-5.118 11.003-4.954.527.019.527-.8 0-.82l-.016-.013z" fill="url(#cpaint47_linear)"/><path d="M75.81 78.08a1.065 1.065 0 00-1.43 1.093c.082 1.065 1.256 1.365 2.138 1.302.762-.065 1.652-.347 1.385-1.3a1.223 1.223 0 00-.667-.77 1.543 1.543 0 00-.77-.095c-.1 0-1.027.338-.633-.069l-.645-.084a.674.674 0 01.197.546.413.413 0 00.614.352.546.546 0 01.74.64.412.412 0 00.748.316c.274-.492.604-1.47.194-1.983-.273-.347-.8-.243-1.127-.04-.203.142-.391.304-.563.483-.33.292-.546.428-.423-.131.204-1.02 1.177-1.83 2.064-2.237l-.6-.462a8.635 8.635 0 01-1.653 3.237l.7.29a1.825 1.825 0 011.114-1.779h-.402l.213.35c-.08.516.71.737.79.215.103-.674-.323-1.55-1.112-1.22-.942.393-1.431 1.472-1.412 2.433 0 .328.464.582.702.292a9.63 9.63 0 001.86-3.602.415.415 0 00-.604-.461 4.58 4.58 0 00-1.988 1.731c-.333.546-.751 1.398-.412 2.026a.87.87 0 001.188.336c.252-.15.483-.333.685-.546.101-.09.213-.246.347-.273.12-.082.114-.035-.02.145-.001.283-.084.56-.237.797l.748.314a1.366 1.366 0 00-1.941-1.565l.617.355a1.489 1.489 0 00-.309-.964.415.415 0 00-.642-.084c-.415.434-.494 1.185.028 1.586.39.298.582 0 1.01-.068 1.456-.188.606.467.093.49-.23.024-.462.007-.685-.05-.57-.193-.606-.442-.107-.746.489.2.7-.592.219-.789l-.011-.01z" fill="url(#cpaint48_linear)"/><path d="M75.152 79.577c.336 1.092-1.051 1.453-1.71 1.83a3.808 3.808 0 00-1.182 1.035c-.688.923-.945 2.097-1.172 3.203-.103.516.686.735.793.219a9.285 9.285 0 01.69-2.357c.492-.978 1.197-1.306 2.114-1.808.918-.503 1.581-1.281 1.257-2.34-.153-.503-.945-.287-.79.218z" fill="url(#cpaint49_linear)"/><path d="M76.518 79.028a.792.792 0 00-.683.82c0 .324.216.532.364.791.35.531.617 1.112.792 1.723.13.588.259 1.639-.047 2.185-.565 1.014-1.587.82-2.458.82-.82 0-1.453.273-1.425-.869.016-.642.464-1.292.819-1.797l-.748-.098c.157.834.24 1.68.248 2.529 0 .38.582.59.762.204.44-.923.788-1.887 1.04-2.878l-.805-.11.142 2.076a.412.412 0 00.762.208.928.928 0 00.205-.369c.027-.128-.224-.994-.325-.685l.803.109.057-1.972-.82.11a4.08 4.08 0 01.154 1.72c-.052.456.715.56.819.11l.513-2.65-.748.096c.178.366.227.782.14 1.18-.06.524.759.518.819 0a2.878 2.878 0 00-.252-1.593.412.412 0 00-.748.099l-.516 2.649.806.109a4.466 4.466 0 00-.183-1.936.41.41 0 00-.803.106l-.058 1.972c0 .478.664.546.806.11l.044-.135a.415.415 0 00-.104-.398c-.85-.923-1.022.546-1.316.953l.764.207-.142-2.075c-.03-.443-.685-.58-.805-.11-.231.924-.551 1.823-.956 2.685l.764.208a15.44 15.44 0 00-.273-2.748c-.07-.377-.565-.36-.748-.098-.546.787-1.491 2.504-.762 3.447.636.819 2.638.502 3.493.45 1.35-.076 1.838-.931 1.985-2.204.07-.61.037-1.226-.1-1.824-.074-.322-.82-2.365-1.044-2.324.52-.096.298-.888-.218-.792l-.014-.011z" fill="url(#cpaint50_linear)"/><path d="M74.931 80.868l-2.236 2.953.707.412 1.638-2.37-.748-.317-.816 3.116a.413.413 0 00.748.317c.371-.616.789-1.203 1.248-1.756l-.683-.4a4.46 4.46 0 01-1.03 1.894l.686.398c.042-.377.143-.746.298-1.092.21-.473-.456-.89-.707-.415a9.604 9.604 0 01-.79 1.24l.749.098.166-.778-.748-.099.12.683a.413.413 0 00.686.18 8.155 8.155 0 001.638-2.471h-.704c.185.341.315.71.385 1.092.098.492.75.309.803-.11a22.22 22.22 0 00.18-2.757h-.82v1.717c0 .445.73.577.806.11a3.13 3.13 0 01.402-1.175h-.719c.173.28.268.6.273.929a.41.41 0 00.82 0l.103-.546h-.789c.08.483.38 3.206-.688 2.886-.18-.043-.232-.032-.156.03l.243-.519.571-1.21-.764-.207c.049.563.1 1.366-.238 1.846-.273.39-1.114.546-1.543.317a2.73 2.73 0 01-.713-.748l-.56.546c.454.33 1.188 1.141 1.773 1.188.445.035.819-.333 1.111-.628a4.761 4.761 0 001.336-3.504.41.41 0 10-.82 0v.934a.41.41 0 00.82 0V80.36a.41.41 0 10-.82 0 9.836 9.836 0 01-.142 1.638l.806.11a18.85 18.85 0 01-.09-1.964.409.409 0 00-.803-.11c-.123.522-.273 1.036-.418 1.546l.748-.098-.057-.219c-.038-.521-.858-.524-.82 0a1.5 1.5 0 00.17.634c.158.333.653.216.748-.098.156-.514.295-1.027.418-1.546l-.806-.11a18.85 18.85 0 00.09 1.964c.042.421.719.601.804.11.109-.617.166-1.242.172-1.868h-.82v2.291h.82v-.934h-.82a3.938 3.938 0 01-1.34 3.146c-.194.186-.372.159-.528-.085-.388-.16-.789-.576-1.128-.819-.338-.243-.803.238-.562.56.628.836 1.565 1.767 2.73 1.365 1.227-.434 1.394-2.094 1.3-3.187-.03-.363-.573-.609-.761-.204l-.82 1.728c-.095.202-.273.481-.245.721.09.615.835.514 1.294.478 1.778-.134 1.497-2.654 1.292-3.921-.068-.421-.68-.356-.79 0-.086.249-.131.511-.133.775h.82a3.246 3.246 0 00-.386-1.34.413.413 0 00-.707 0 3.982 3.982 0 00-.486 1.365l.819.109V80.68a.41.41 0 10-.82 0 22.198 22.198 0 01-.18 2.758l.806-.109a4.688 4.688 0 00-.467-1.278.412.412 0 00-.707 0 7.472 7.472 0 01-1.51 2.305l.685.18-.12-.683c-.063-.363-.576-.374-.748-.098a1.797 1.797 0 00-.249 1.41c.068.387.56.346.748.098a9.59 9.59 0 00.79-1.237l-.708-.415a4.66 4.66 0 00-.382 1.286c-.05.36.38.737.685.398a5.462 5.462 0 001.24-2.255c.101-.372-.412-.724-.685-.399a15.643 15.643 0 00-1.366 1.912l.749.317.833-3.106a.413.413 0 00-.749-.316l-1.638 2.373c-.306.44.396.82.707.412l2.228-2.95c.317-.42-.393-.819-.707-.415h-.022z" fill="url(#cpaint51_linear)"/><path d="M109.774 90.725c3.277-2.005 5.883-4.995 8.777-7.497 3.141-2.712 6.438-5.238 9.832-7.63 6.593-4.643 13.516-8.797 20.434-12.94a.412.412 0 00.135-.553.413.413 0 00-.548-.154c-6.917 4.143-13.843 8.288-20.436 12.94a128.824 128.824 0 00-9.059 6.958c-3.168 2.676-5.989 6.008-9.558 8.168-.451.274-.039.984.412.708h.011z" fill="url(#cpaint52_linear)"/><path d="M159.394 49.937c-3.55.36-7.374 1.264-9.558 4.37-1.888 2.67-1.847 7.33-.074 10.072 2.013 3.116 6.125 3.228 9.321 2.22 3.195-1.008 6.502-2.775 6.472-6.593-.016-2.048-.756-4.181-1.573-6.038-.704-1.603-1.952-3.004-3.842-2.827-.522.05-.527.869 0 .82 2.531-.235 3.345 2.772 3.946 4.67.546 1.772 1.051 3.87.194 5.631-.858 1.762-2.925 2.66-4.692 3.305-1.912.693-4.012 1.117-6.008.546-3.955-1.106-5.047-6.118-3.908-9.673 1.311-4.097 5.953-5.301 9.736-5.684.519-.052.524-.871 0-.82h-.014z" fill="url(#cpaint53_linear)"/><path d="M164.856 81.617c-3.55.36-7.374 1.264-9.559 4.37-1.887 2.67-1.846 7.33-.073 10.072 2.012 3.116 6.125 3.228 9.321 2.22 3.195-1.008 6.502-2.775 6.472-6.593-.016-2.048-.756-4.181-1.573-6.038-.704-1.603-1.953-3.004-3.842-2.827-.522.05-.527.869 0 .82 2.531-.235 3.345 2.772 3.946 4.67.546 1.772 1.051 3.87.194 5.631-.858 1.762-2.925 2.66-4.692 3.305-1.912.693-4.012 1.117-6.008.546-3.955-1.106-5.047-6.118-3.908-9.674 1.31-4.096 5.953-5.3 9.736-5.683.519-.052.524-.871 0-.82h-.014z" fill="url(#cpaint54_linear)"/><path d="M154.038 57.914l2.587 2.95a.41.41 0 00.575-.003.404.404 0 00.107-.18c.547-1.437.443-2.925.571-4.435a14.622 14.622 0 011.161-4.526 15.273 15.273 0 016.112-7.005c.451-.273.038-.983-.412-.707a16.04 16.04 0 00-6.181 6.79 15.677 15.677 0 00-1.365 4.333c-.273 1.773-.025 3.63-.68 5.331l.685-.183-2.572-2.944c-.35-.396-.926.186-.579.58h-.009z" fill="url(#cpaint55_linear)"/><path d="M111.093 93.918c14.086-.43 28.177-.521 42.271-.274.527 0 .527-.819 0-.819a870.19 870.19 0 00-42.271.273c-.527.017-.53.836 0 .82z" fill="url(#cpaint56_linear)"/><path d="M156.308 85.84a84.683 84.683 0 0113.838 6.952c.448.273.86-.428.412-.707a85.538 85.538 0 00-14.021-7.035c-.489-.194-.702.598-.216.79h-.013z" fill="url(#cpaint57_linear)"/><path d="M165.052 82.128a33.462 33.462 0 00-8.032 20.354c-.021.527.798.527.82 0a32.54 32.54 0 017.791-19.775c.342-.4-.234-.98-.579-.58z" fill="url(#cpaint58_linear)"/><path d="M55.825 90.943l30.524-.398 3.51-.047c.63 0 1.262-.022 1.892-.025.888 0 1.486.738 1.47 1.64-.041 1.91-1.243 1.843-2.816 1.91l-3.793.173-15.447.68c-2.767.123-5.536.273-8.302.369-2.497.076-7.243-.738-6.134-4.37.153-.505-.637-.721-.792-.219-.546 1.787.42 3.6 1.977 4.537 2.21 1.327 5.12.876 7.56.767l18.964-.86 4.604-.205c1.18-.055 2.821.186 3.906-.363 1.272-.642 1.496-3.19.693-4.263-.412-.547-.991-.596-1.638-.62-1.699-.066-3.428.046-5.13.068l-9.454.126-21.605.273c-.527 0-.527.82 0 .82l.01.007z" fill="url(#cpaint59_linear)"/><path d="M179.153 191.309c-.688.431-1.475.674-2.185 1.054s-1.401.95-1.603 1.737c-.075.244-.063.507.036.743.176.285.447.499.764.606a11.604 11.604 0 009.179.104 12.192 12.192 0 011.584-.628 10.326 10.326 0 012.029-.208 15.61 15.61 0 002.133-.273 1.88 1.88 0 00.967-.401c.253-.292.406-.658.434-1.044a8.585 8.585 0 00-1.365-6.084 2.03 2.03 0 00-.596-.631 2.285 2.285 0 00-.947-.254c-1.366-.167-2.797-.473-4.176-.505-.989-.022-1.486.447-2.185 1.127-1.444 1.445-2.288 3.545-4.069 4.657zM199.278 191.107c0 1.338.161 2.755.972 3.823.371.462.82.855 1.327 1.161 1.715 1.092 3.987 1.494 5.795.568a1.72 1.72 0 00.721-.606c.273-.476.129-1.068-.024-1.593l-2.617-9.067c-1.69.26-4.175.443-5.677 1.3-1.09.62-.497 3.217-.497 4.414z" fill="#323444"/><path d="M177.618 135.276c-.158.5-.732.732-1.046 1.153-.368.494-.33 1.18-.196 1.78a4.706 4.706 0 001.199 2.363 2.836 2.836 0 002.458.835c.879-.166 1.638-.944 1.668-1.837a3.48 3.48 0 00-.256-1.183l-1.863-5.386a.276.276 0 00-.131-.183.279.279 0 00-.205.036c-.44.207-1.322.426-1.578.882-.257.456.136 1.046-.05 1.54z" fill="#FBB3B2"/><path d="M176.747 135.006c.68-.107 1.275-.505 1.912-.767.636-.263 1.434-.364 1.969.073.153.126.3.298.5.295a19.628 19.628 0 00-1.224-3.889.303.303 0 00-.106-.15.313.313 0 00-.233 0l-1.837.481c-.681.177-.76.123-.708.792.014.297.167 3.165-.273 3.165z" fill="#323444"/><path d="M176.545 96.116c-.273.42-.273.945-.273 1.44 0 2.416.024 4.847.382 7.239.085.574.191 1.147.246 1.726.062.806.075 1.615.038 2.423l-.273 10.514c-.033 1.286-.098 2.668-.893 3.679a1.763 1.763 0 00-.32 1.166c.208 2.638.645 5.254 1.079 7.863a4.857 4.857 0 014.408.21 48.518 48.518 0 002.264-13.382c.063-2.237-.033-4.487.311-6.697.577-3.719.342-7.535-.082-11.276-.133-1.185-.417-2.406-1.177-3.324a5.033 5.033 0 00-2.731-1.573c-1.01-.265-1.914.008-2.979-.008z" fill="#5B5583"/><path opacity=".1" d="M176.545 96.116c-.273.42-.273.945-.273 1.44 0 2.416.024 4.847.382 7.239.085.574.191 1.147.246 1.726.062.806.075 1.615.038 2.423l-.273 10.514c-.033 1.286-.098 2.668-.893 3.679a1.763 1.763 0 00-.32 1.166c.208 2.638.645 5.254 1.079 7.863a4.857 4.857 0 014.408.21 48.518 48.518 0 002.264-13.382c.063-2.237-.033-4.487.311-6.697.577-3.719.342-7.535-.082-11.276-.133-1.185-.417-2.406-1.177-3.324a5.033 5.033 0 00-2.731-1.573c-1.01-.265-1.914.008-2.979-.008z" fill="#000"/><path d="M179.882 126.608a48.244 48.244 0 002.873 27.922c.32.653.545 1.348.667 2.065.15 1.338-.467 2.624-.82 3.919-.819 2.944-.347 6.079.178 9.091.218 1.257.443 2.512.674 3.766.227 1.224.446 2.554-.123 3.663.489 2.037.779 4.055 1.268 6.093.052.161.067.332.046.499a1.472 1.472 0 01-.5.67 2.993 2.993 0 00-.762 2.859c1.248-.896 2.988-.582 4.414 0 1.425.582 2.829 1.365 4.369 1.365-.224-1.807-.439-3.706.227-5.401.388-.984 1.071-1.912 1.051-2.964-.019-.942-.595-1.783-.734-2.714a6.873 6.873 0 01.065-1.737c.366-3.343-.049-6.719-.464-10.056a6.01 6.01 0 00-.459-1.912c-.194-.393-.483-.77-.478-1.209 0-.511.413-.926.566-1.412.273-.896-.23-2.114.527-2.669 1.993-1.463 1.229-4.959 1.185-7.431a121.692 121.692 0 00-.273-6.39 27.221 27.221 0 011.507 11.017c-.087 1.223-.248 2.509.23 3.64.366.869 1.092 1.584 1.289 2.504.123.568.035 1.156.063 1.735.027.579.224 1.209.723 1.502.039 2.632.274 5.448.315 8.081a19.93 19.93 0 00.327 4.014c.123.421.191.857.202 1.295a5.394 5.394 0 01-.431 1.592 9.13 9.13 0 001.365 8.425c.645-1.144 1.989-1.75 3.299-1.846 1.311-.095 2.606.235 3.876.568a7.585 7.585 0 01.907-4.615c.21-.317.371-.663.477-1.027.148-.694-.196-1.385-.382-2.07-.303-1.093-.197-2.27-.126-3.411a53.948 53.948 0 00-.505-11.449 9.663 9.663 0 00-.521-2.185c-.099-.251-.219-.491-.301-.745a5.861 5.861 0 01-.218-1.398l-.314-4.37c-.222-3.062.783-6.085 1.485-9.073.314-1.338.656-2.673.866-4.033.287-1.852.333-3.745.754-5.572.377-1.638 1.057-3.236 1.199-4.915.218-2.603-.863-5.118-1.912-7.505-.437-.983-2.089-.885-3.152-1.06-7.535-1.237-15.471-1.245-22.577 1.543a5.63 5.63 0 00-1.942 1.341z" fill="#3C354C"/><path d="M185.314 78.135l.836 3.25c.227.745.353 1.518.374 2.297.009.284-.054.566-.183.819a1.948 1.948 0 01-.519.53c-.571.434-.967 1.447-1.619 1.748.336.584.8.205 1.406.497 1.068.519 2.046 1.264 3.204 1.52 1.092.241 2.239.014 3.323-.272 1.538-.418 3.067-.994 4.304-2.002 1.238-1.008 1.942-1.898 1.937-3.49-1.366.16-2.581-1.218-3.185-2.458a6.713 6.713 0 01-.459-1.472l-.731-3.22c-.798.175-1.448.745-2.21 1.043-.762.298-1.663.325-2.51.363a27.055 27.055 0 00-4.468.58c-.202.04-.456.169-.407.365" fill="#FBB3B2"/><path opacity=".1" d="M185.314 78.135l.836 3.25c.227.745.353 1.518.374 2.297.009.284-.054.566-.183.819a1.948 1.948 0 01-.519.53c-.571.434-.967 1.447-1.619 1.748.336.584.8.205 1.406.497 1.068.519 2.046 1.264 3.204 1.52 1.092.241 2.239.014 3.323-.272 1.538-.418 3.067-.994 4.304-2.002 1.238-1.008 1.942-1.898 1.937-3.49-1.366.16-2.581-1.218-3.185-2.458a6.713 6.713 0 01-.459-1.472l-.731-3.22c-.798.175-1.448.745-2.21 1.043-.762.298-1.663.325-2.51.363a27.055 27.055 0 00-4.468.58c-.202.04-.456.169-.407.365" fill="#000"/><path d="M188.903 79.926a7.231 7.231 0 007.231-7.231 7.231 7.231 0 10-14.463 0 7.232 7.232 0 007.232 7.231z" fill="#FBB3B2"/><path d="M190.894 84.615a6.551 6.551 0 011.638-2.184c1.019-.893 2.412-1.617 2.652-2.95l2.207 2.57c.12.12.213.263.273.42a1.07 1.07 0 01-.208.85c-.546.871-1.406 1.494-2.22 2.125a67.33 67.33 0 00-5.35 4.719.546.546 0 01-.287.175.518.518 0 01-.298-.085 12.427 12.427 0 01-3.815-3.102c-.079-.096-.177-.205-.306-.197a.396.396 0 00-.205.106c-.734.601-1.537 1.32-2.479 1.227 1.22-.877 1.911-2.34 2.168-3.824a7.254 7.254 0 01.311-1.493 1.56 1.56 0 011.065-1.011c-.595.91-.188 2.198.612 2.933a6.035 6.035 0 002.709 1.314c.929.174 1.202-.877 1.533-1.593zM181.485 127.351c1.03.254 2.005.685 3.004 1.005 1.822.57 3.739.772 5.64.592a3.045 3.045 0 001.639-.521c.128-.104.245-.227.382-.322.228-.138.476-.24.735-.304 2.504-.783 4.601-2.474 6.636-4.129.065-.055.139-.123.134-.21a.276.276 0 00-.082-.156l-1.071-1.229c-2.807.478-5.683.298-8.531.227a12.376 12.376 0 00-1.754.046c-.562.066-1.117.208-1.671.328-2.106.459-4.258.634-6.391.934a.987.987 0 00-.423.131.97.97 0 00-.227.251l-.748 1.052a3.3 3.3 0 00-.628 1.204c-.175.819.191 1.093.887.986a6.496 6.496 0 012.469.115z" fill="#323444"/><path d="M189.856 88.914a13.271 13.271 0 00-2.816-2.198 3.985 3.985 0 00-1.365-.546 1.702 1.702 0 00-1.398.344c-.243.216-.396.516-.631.743-.296.248-.635.44-1 .565a17.747 17.747 0 00-3.512 2.002c-.594.416-1.13.91-1.592 1.47-1.237 1.583-1.423 3.738-1.39 5.748.024 1.398 1.365 2.436 2.288 3.482a25.63 25.63 0 012.344 3.277c.497.787 1.016 1.639.953 2.576-.052.767-.5 1.488-.429 2.253.025.273.112.524.137.789.049.546-.167 1.092-.222 1.639-.073.772.178 1.54.192 2.318a7.324 7.324 0 01-.203 1.581c-.524 2.497-1.182 5.006-1.048 7.555l-1.513.273a1.283 1.283 0 01.37 1.094 1.28 1.28 0 01-.662.946c2.362.789 4.915.39 7.42.388 2.073 0 4.137.273 6.207.234 2.07-.038 4.206-.412 5.913-1.584.464-.316.89-.688 1.379-.964a6.795 6.795 0 012.089-.682 20.63 20.63 0 014.097-.366c.672 0 1.404.027 1.939-.377.59-.448.74-1.259.819-1.994.08-.776.129-1.554.142-2.332a10.1 10.1 0 00-.095-1.814 11.853 11.853 0 00-.32-1.3l-1.029-3.626c-.426-1.497.166-3.138.292-4.69.03-.366.035-.792-.246-1.026-.101-.085-.24-.142-.273-.274a.462.462 0 01.066-.366c.546-1.092 1.365-2.056 2.113-3.042a62.106 62.106 0 003.496-5.372 17.285 17.285 0 00-4.626-10.345c-.547-.593-1.172-1.16-1.937-1.428a5.732 5.732 0 00-1.54-.249c-2.141-.145-4.37-.273-6.235-1.349a1.185 1.185 0 00-.445-.188c-.412-.047-.713.36-.98.682-.689.82-1.702 1.29-2.592 1.893-1.661 1.128-2.958 2.68-4.157 4.26z" fill="#5B5583"/><path d="M212.553 96.755c.426 1.35.385 2.791.525 4.198.082.849.231 1.69.445 2.515.098.454.273.887.519 1.281.246.36.598.653.754 1.06.085.275.122.563.112.852l.032 1.884c.07.999-.082 2-.445 2.933l-1.177 3.581c-.636 1.939-1.289 3.908-2.436 5.595a1.614 1.614 0 01-.702.659 3.445 3.445 0 01-.707.109 1.816 1.816 0 00-1.5 1.767 4.158 4.158 0 00-1.007-1.03l-2.395-1.911c-.82-.667-1.675-1.344-2.669-1.729a7.233 7.233 0 005.031-6.079 2.725 2.725 0 01.273-1.197c.199-.322.568-.568.595-.947.033-.478-.508-.839-.508-1.317 0-.316.235-.579.339-.876a2.203 2.203 0 000-1.123l-.33-1.835a1.42 1.42 0 00-.164-.524 3.418 3.418 0 00-.41-.432c-.568-.636-.317-1.639 0-2.422a23.187 23.187 0 012.791-4.897c.401-.508.772-1.039 1.112-1.59.289-.502.355-1.198.661-1.638.393 1.032.925 2.05 1.261 3.113z" fill="#5B5583"/><path d="M201.818 118.631c-.122.09-.227.201-.311.327-.322.404-.751.71-1.237.882.273.197.521.391.778.59a34.126 34.126 0 015.189 4.963c.172-.615 1.201-.571 1.453-1.158.059-.168.078-.348.054-.525a15.937 15.937 0 00-.393-2.731 3.09 3.09 0 00-.546-1.278c-.382-.461-.978-.683-1.546-.874-.86-.3-2.567-.723-3.441-.196z" fill="#323444"/><path d="M198.404 120.777c-.819.607-1.538 1.366-2.458 1.781-.65.295-1.39.423-1.958.863.308.68 1.111 1.032 1.857 1.005a4.415 4.415 0 002.078-.762c.489-.3 1.063-.65 1.595-.44.082.415-.273.806-.273 1.227 0 .42.35.726.694.947 1.638 1.057 3.747.97 5.699.847a.516.516 0 00.314-.093.497.497 0 00.118-.361c.024-.431.035-.86.038-1.291a1.857 1.857 0 00-.792-1.825 22.318 22.318 0 00-3.414-2.417c-1.201-.696-2.419-.284-3.498.519z" fill="#FBB3B2"/><path d="M191.443 69.671c-1.213.145-2.095 1.093-1.972 2.122.123 1.03 1.204 1.74 2.417 1.593 1.212-.148 2.095-1.093 1.972-2.12-.123-1.026-1.205-1.74-2.417-1.595zm.412 3.43c-1.027.124-1.942-.48-2.048-1.349-.107-.868.644-1.67 1.668-1.794 1.025-.123 1.942.48 2.049 1.35.106.868-.645 1.67-1.669 1.794zM185.533 70.382c-1.213.144-2.095 1.092-1.972 2.119.123 1.027 1.205 1.74 2.417 1.595 1.213-.145 2.095-1.093 1.972-2.122-.123-1.03-1.204-1.737-2.417-1.592zm.412 3.427c-1.026.123-1.941-.48-2.045-1.346-.104-.866.642-1.672 1.669-1.797 1.026-.126 1.941.48 2.045 1.349.104.868-.644 1.671-1.669 1.794z" fill="#3C354C"/><path d="M181.144 70.909l2.635.562-.259.694-2.485-.73.109-.526zM195.834 69.144l-2.431 1.172.418.612 2.242-1.297-.229-.487zM187.707 71.296l1.848-.22-.095.458-1.587.106-.166-.344z" fill="#3C354C"/><path d="M184.121 70.676a2.93 2.93 0 00.273-1.193c.006-.247.048-.492.125-.727.135-.298.339-.56.596-.761.852-.721 2.072-1.093 3.277-1.145a7.579 7.579 0 013.791.82c.357.167.678.405.942.699.382.467.464 1.07.849 1.532a2.235 2.235 0 002.092.655c.134-.475-.041-.977.027-1.464.108-.416.253-.822.435-1.212.423-1.248-.194-2.696-1.467-3.441-.445-.273-.972-.45-1.305-.82-.334-.368-.413-.75-.642-1.12-.609-.974-2.185-1.43-3.384-.98-.377.142-.71.358-1.092.511-.71.292-1.519.344-2.3.442a7.035 7.035 0 00-2.228.585c-.675.333-1.24.868-1.396 1.507-.074.295-.057.601-.131.893-.377 1.483-2.81 2.204-2.947 3.717-.049.547.249 1.07.62 1.516.257.303.871 1.114 1.306 1.232.434.117.764-.295 1.179-.437.656-.205 1.052-.249 1.38-.809z" fill="#CBCEDA"/><path d="M214.93 166.866c0 13.721 8.608 24.825 19.245 24.825l-19.245-24.825z" fill="#46455B"/><path d="M234.175 191.694c0-13.877 9.608-25.104 21.479-25.104l-21.479 25.104z" fill="url(#cpaint60_linear)"/><path d="M221.904 168.111c0 13.036 5.49 23.583 12.271 23.583l-12.271-23.583z" fill="url(#cpaint61_linear)"/><path d="M234.175 191.694c0-17.73 11.104-32.079 24.825-32.079l-24.825 32.079z" fill="#46455B"/><path d="M230.127 191.869s2.731-.085 3.551-.669c.819-.585 4.197-1.287 4.402-.347.205.939 4.097 4.673 1.019 4.697-3.078.025-7.161-.481-7.98-.98-.82-.5-.992-2.701-.992-2.701z" fill="#A8A8A8"/><path opacity=".2" d="M239.156 195.222c-3.08.025-7.158-.48-7.98-.98-.625-.38-.874-1.748-.958-2.376h-.091s.172 2.201.995 2.701c.822.5 4.899 1.005 7.98.98.89 0 1.196-.325 1.179-.792-.122.284-.447.462-1.125.467z" fill="#000"/><path d="M6.142 174.884c0 10.924 6.847 19.751 15.31 19.751l-15.31-19.751z" fill="#46455B"/><path d="M21.452 194.635c0-11.039 7.647-19.972 17.088-19.972l-17.088 19.972z" fill="url(#cpaint62_linear)"/><path d="M11.688 175.878c0 10.378 4.37 18.763 9.764 18.763l-9.764-18.763z" fill="url(#cpaint63_linear)"/><path d="M21.452 194.635c0-14.106 8.835-25.521 19.751-25.521l-19.75 25.521z" fill="#46455B"/><path d="M18.232 194.775s2.172-.069 2.824-.547c.653-.478 3.343-1.024 3.504-.273.161.751 3.264 3.717.82 3.736-2.445.019-5.697-.382-6.35-.778-.653-.396-.798-2.138-.798-2.138z" fill="#A8A8A8"/><defs><linearGradient id="cpaint32_linear" x1="113.848" y1="151.299" x2="113.848" y2="158.4" gradientUnits="userSpaceOnUse"><stop stop-color="#00A9AA"/><stop offset="1" stop-color="#00C66D"/></linearGradient><linearGradient id="cpaint0_linear" x1="64.69" y1="35.503" x2="64.69" y2="42.604" gradientUnits="userSpaceOnUse"><stop stop-color="#00A9AA"/><stop offset="1" stop-color="#00C66D"/></linearGradient><linearGradient id="cpaint2_linear" x1="89.269" y1="31.953" x2="89.269" y2="39.054" gradientUnits="userSpaceOnUse"><stop stop-color="#00A9AA"/><stop offset="1" stop-color="#00C66D"/></linearGradient><linearGradient id="cpaint3_linear" x1="141.158" y1="35.503" x2="141.158" y2="42.604" gradientUnits="userSpaceOnUse"><stop stop-color="#00A9AA"/><stop offset="1" stop-color="#00C66D"/></linearGradient><linearGradient id="cpaint4_linear" x1="141.158" y1="24.852" x2="141.158" y2="31.953" gradientUnits="userSpaceOnUse"><stop stop-color="#00A9AA"/><stop offset="1" stop-color="#00C66D"/></linearGradient><linearGradient id="cpaint5_linear" x1="165.738" y1="31.953" x2="165.738" y2="39.054" gradientUnits="userSpaceOnUse"><stop stop-color="#00A9AA"/><stop offset="1" stop-color="#00C66D"/></linearGradient><linearGradient id="cpaint6_linear" x1="64.69" y1="10.651" x2="64.69" y2="17.752" gradientUnits="userSpaceOnUse"><stop stop-color="#00A9AA"/><stop offset="1" stop-color="#00C66D"/></linearGradient><linearGradient id="cpaint7_linear" x1="89.269" y1="17.752" x2="89.269" y2="24.852" gradientUnits="userSpaceOnUse"><stop stop-color="#00A9AA"/><stop offset="1" stop-color="#00C66D"/></linearGradient><linearGradient id="cpaint8_linear" x1="113.848" y1="24.852" x2="113.848" y2="31.953" gradientUnits="userSpaceOnUse"><stop stop-color="#00A9AA"/><stop offset="1" stop-color="#00C66D"/></linearGradient><linearGradient id="cpaint9_linear" x1="64.69" y1="0" x2="64.69" y2="7.101" gradientUnits="userSpaceOnUse"><stop stop-color="#00A9AA"/><stop offset="1" stop-color="#00C66D"/></linearGradient><linearGradient id="cpaint10_linear" x1="89.269" y1="7.101" x2="89.269" y2="14.201" gradientUnits="userSpaceOnUse"><stop stop-color="#00A9AA"/><stop offset="1" stop-color="#00C66D"/></linearGradient><linearGradient id="cpaint11_linear" x1="113.848" y1="14.201" x2="113.848" y2="21.302" gradientUnits="userSpaceOnUse"><stop stop-color="#00A9AA"/><stop offset="1" stop-color="#00C66D"/></linearGradient><linearGradient id="cpaint12_linear" x1="141.158" y1="10.651" x2="141.158" y2="17.752" gradientUnits="userSpaceOnUse"><stop stop-color="#00A9AA"/><stop offset="1" stop-color="#00C66D"/></linearGradient><linearGradient id="cpaint13_linear" x1="165.738" y1="17.752" x2="165.738" y2="24.852" gradientUnits="userSpaceOnUse"><stop stop-color="#00A9AA"/><stop offset="1" stop-color="#00C66D"/></linearGradient><linearGradient id="cpaint14_linear" x1="190.317" y1="24.852" x2="190.317" y2="31.953" gradientUnits="userSpaceOnUse"><stop stop-color="#00A9AA"/><stop offset="1" stop-color="#00C66D"/></linearGradient><linearGradient id="cpaint15_linear" x1="141.158" y1="0" x2="141.158" y2="7.101" gradientUnits="userSpaceOnUse"><stop stop-color="#00A9AA"/><stop offset="1" stop-color="#00C66D"/></linearGradient><linearGradient id="cpaint16_linear" x1="165.738" y1="7.101" x2="165.738" y2="14.201" gradientUnits="userSpaceOnUse"><stop stop-color="#00A9AA"/><stop offset="1" stop-color="#00C66D"/></linearGradient><linearGradient id="cpaint17_linear" x1="190.317" y1="14.201" x2="190.317" y2="21.302" gradientUnits="userSpaceOnUse"><stop stop-color="#00A9AA"/><stop offset="1" stop-color="#00C66D"/></linearGradient><linearGradient id="cpaint18_linear" x1="64.69" y1="161.95" x2="64.69" y2="169.051" gradientUnits="userSpaceOnUse"><stop stop-color="#00A9AA"/><stop offset="1" stop-color="#00C66D"/></linearGradient><linearGradient id="cpaint19_linear" x1="89.269" y1="169.051" x2="89.269" y2="176.151" gradientUnits="userSpaceOnUse"><stop stop-color="#00A9AA"/><stop offset="1" stop-color="#00C66D"/></linearGradient><linearGradient id="cpaint20_linear" x1="113.848" y1="176.152" x2="113.848" y2="183.252" gradientUnits="userSpaceOnUse"><stop stop-color="#00A9AA"/><stop offset="1" stop-color="#00C66D"/></linearGradient><linearGradient id="cpaint21_linear" x1="64.69" y1="151.299" x2="64.69" y2="158.4" gradientUnits="userSpaceOnUse"><stop stop-color="#00A9AA"/><stop offset="1" stop-color="#00C66D"/></linearGradient><linearGradient id="cpaint22_linear" x1="89.269" y1="158.4" x2="89.269" y2="165.5" gradientUnits="userSpaceOnUse"><stop stop-color="#00A9AA"/><stop offset="1" stop-color="#00C66D"/></linearGradient><linearGradient id="cpaint23_linear" x1="113.848" y1="165.501" x2="113.848" y2="172.601" gradientUnits="userSpaceOnUse"><stop stop-color="#00A9AA"/><stop offset="1" stop-color="#00C66D"/></linearGradient><linearGradient id="cpaint24_linear" x1="141.158" y1="161.95" x2="141.158" y2="169.051" gradientUnits="userSpaceOnUse"><stop stop-color="#00A9AA"/><stop offset="1" stop-color="#00C66D"/></linearGradient><linearGradient id="cpaint25_linear" x1="165.738" y1="169.051" x2="165.738" y2="176.151" gradientUnits="userSpaceOnUse"><stop stop-color="#00A9AA"/><stop offset="1" stop-color="#00C66D"/></linearGradient><linearGradient id="cpaint26_linear" x1="190.317" y1="176.152" x2="190.317" y2="183.252" gradientUnits="userSpaceOnUse"><stop stop-color="#00A9AA"/><stop offset="1" stop-color="#00C66D"/></linearGradient><linearGradient id="cpaint27_linear" x1="141.158" y1="151.299" x2="141.158" y2="158.4" gradientUnits="userSpaceOnUse"><stop stop-color="#00A9AA"/><stop offset="1" stop-color="#00C66D"/></linearGradient><linearGradient id="cpaint28_linear" x1="165.738" y1="158.4" x2="165.738" y2="165.5" gradientUnits="userSpaceOnUse"><stop stop-color="#00A9AA"/><stop offset="1" stop-color="#00C66D"/></linearGradient><linearGradient id="cpaint29_linear" x1="190.317" y1="165.501" x2="190.317" y2="172.601" gradientUnits="userSpaceOnUse"><stop stop-color="#00A9AA"/><stop offset="1" stop-color="#00C66D"/></linearGradient><linearGradient id="cpaint30_linear" x1="64.69" y1="137.098" x2="64.69" y2="144.199" gradientUnits="userSpaceOnUse"><stop stop-color="#00A9AA"/><stop offset="1" stop-color="#00C66D"/></linearGradient><linearGradient id="cpaint31_linear" x1="89.269" y1="144.198" x2="89.269" y2="151.299" gradientUnits="userSpaceOnUse"><stop stop-color="#00A9AA"/><stop offset="1" stop-color="#00C66D"/></linearGradient><linearGradient id="cpaint1_linear" x1="64.69" y1="24.852" x2="64.69" y2="31.953" gradientUnits="userSpaceOnUse"><stop stop-color="#00A9AA"/><stop offset="1" stop-color="#00C66D"/></linearGradient><linearGradient id="cpaint33_linear" x1="89.269" y1="133.547" x2="89.269" y2="140.648" gradientUnits="userSpaceOnUse"><stop stop-color="#00A9AA"/><stop offset="1" stop-color="#00C66D"/></linearGradient><linearGradient id="cpaint34_linear" x1="113.848" y1="140.648" x2="113.848" y2="147.749" gradientUnits="userSpaceOnUse"><stop stop-color="#00A9AA"/><stop offset="1" stop-color="#00C66D"/></linearGradient><linearGradient id="cpaint35_linear" x1="141.158" y1="137.098" x2="141.158" y2="144.199" gradientUnits="userSpaceOnUse"><stop stop-color="#00A9AA"/><stop offset="1" stop-color="#00C66D"/></linearGradient><linearGradient id="cpaint36_linear" x1="165.738" y1="144.198" x2="165.738" y2="151.299" gradientUnits="userSpaceOnUse"><stop stop-color="#00A9AA"/><stop offset="1" stop-color="#00C66D"/></linearGradient><linearGradient id="cpaint37_linear" x1="190.317" y1="151.299" x2="190.317" y2="158.4" gradientUnits="userSpaceOnUse"><stop stop-color="#00A9AA"/><stop offset="1" stop-color="#00C66D"/></linearGradient><linearGradient id="cpaint38_linear" x1="165.738" y1="133.547" x2="165.738" y2="140.648" gradientUnits="userSpaceOnUse"><stop stop-color="#00A9AA"/><stop offset="1" stop-color="#00C66D"/></linearGradient><linearGradient id="cpaint39_linear" x1="131.737" y1="187.349" x2="131.737" y2="207.012" gradientUnits="userSpaceOnUse"><stop stop-color="#00A9AA"/><stop offset="1" stop-color="#00C66D"/></linearGradient><linearGradient id="cpaint40_linear" x1="20.45" y1="47.822" x2="20.45" y2="66.523" gradientUnits="userSpaceOnUse"><stop stop-color="#00A9AA"/><stop offset="1" stop-color="#00C66D"/></linearGradient><linearGradient id="cpaint41_linear" x1="60.889" y1="23.76" x2="60.889" y2="44.464" gradientUnits="userSpaceOnUse"><stop stop-color="#00A9AA"/><stop offset="1" stop-color="#00C66D"/></linearGradient><linearGradient id="cpaint42_linear" x1="59.228" y1="124.262" x2="59.228" y2="131.636" gradientUnits="userSpaceOnUse"><stop stop-color="#00A9AA"/><stop offset="1" stop-color="#00C66D"/></linearGradient><linearGradient id="cpaint43_linear" x1="75.751" y1="130.543" x2="75.751" y2="131.636" gradientUnits="userSpaceOnUse"><stop stop-color="#00A9AA"/><stop offset="1" stop-color="#00C66D"/></linearGradient><linearGradient id="cpaint44_linear" x1="77.253" y1="52.767" x2="77.253" y2="113.658" gradientUnits="userSpaceOnUse"><stop stop-color="#00A9AA"/><stop offset="1" stop-color="#00C66D"/></linearGradient><linearGradient id="cpaint45_linear" x1="80.318" y1="63.613" x2="80.318" y2="67.11" gradientUnits="userSpaceOnUse"><stop stop-color="#00A9AA"/><stop offset="1" stop-color="#00C66D"/></linearGradient><linearGradient id="cpaint46_linear" x1="79.675" y1="57.716" x2="79.675" y2="62.716" gradientUnits="userSpaceOnUse"><stop stop-color="#00A9AA"/><stop offset="1" stop-color="#00C66D"/></linearGradient><linearGradient id="cpaint47_linear" x1="76.525" y1="71.381" x2="76.525" y2="87.88" gradientUnits="userSpaceOnUse"><stop stop-color="#00A9AA"/><stop offset="1" stop-color="#00C66D"/></linearGradient><linearGradient id="cpaint48_linear" x1="76.163" y1="75.344" x2="76.163" y2="80.483" gradientUnits="userSpaceOnUse"><stop stop-color="#00A9AA"/><stop offset="1" stop-color="#00C66D"/></linearGradient><linearGradient id="cpaint49_linear" x1="73.552" y1="79.073" x2="73.552" y2="86.158" gradientUnits="userSpaceOnUse"><stop stop-color="#00A9AA"/><stop offset="1" stop-color="#00C66D"/></linearGradient><linearGradient id="cpaint50_linear" x1="75.04" y1="79.028" x2="75.04" y2="86.287" gradientUnits="userSpaceOnUse"><stop stop-color="#00A9AA"/><stop offset="1" stop-color="#00C66D"/></linearGradient><linearGradient id="cpaint51_linear" x1="75.028" y1="79.74" x2="75.028" y2="85.971" gradientUnits="userSpaceOnUse"><stop stop-color="#00A9AA"/><stop offset="1" stop-color="#00C66D"/></linearGradient><linearGradient id="cpaint52_linear" x1="129.082" y1="61.902" x2="129.082" y2="90.787" gradientUnits="userSpaceOnUse"><stop stop-color="#00A9AA"/><stop offset="1" stop-color="#00C66D"/></linearGradient><linearGradient id="cpaint53_linear" x1="156.991" y1="49.935" x2="156.991" y2="67.165" gradientUnits="userSpaceOnUse"><stop stop-color="#00A9AA"/><stop offset="1" stop-color="#00C66D"/></linearGradient><linearGradient id="cpaint54_linear" x1="162.453" y1="81.615" x2="162.453" y2="98.845" gradientUnits="userSpaceOnUse"><stop stop-color="#00A9AA"/><stop offset="1" stop-color="#00C66D"/></linearGradient><linearGradient id="cpaint55_linear" x1="159.643" y1="43.945" x2="159.643" y2="60.979" gradientUnits="userSpaceOnUse"><stop stop-color="#00A9AA"/><stop offset="1" stop-color="#00C66D"/></linearGradient><linearGradient id="cpaint56_linear" x1="132.228" y1="92.687" x2="132.228" y2="93.918" gradientUnits="userSpaceOnUse"><stop stop-color="#00A9AA"/><stop offset="1" stop-color="#00C66D"/></linearGradient><linearGradient id="cpaint57_linear" x1="163.399" y1="85.019" x2="163.399" y2="92.854" gradientUnits="userSpaceOnUse"><stop stop-color="#00A9AA"/><stop offset="1" stop-color="#00C66D"/></linearGradient><linearGradient id="cpaint58_linear" x1="161.378" y1="81.992" x2="161.378" y2="102.877" gradientUnits="userSpaceOnUse"><stop stop-color="#00A9AA"/><stop offset="1" stop-color="#00C66D"/></linearGradient><linearGradient id="cpaint59_linear" x1="74.765" y1="89.628" x2="74.765" y2="96.122" gradientUnits="userSpaceOnUse"><stop stop-color="#00A9AA"/><stop offset="1" stop-color="#00C66D"/></linearGradient><linearGradient id="cpaint60_linear" x1="244.915" y1="166.59" x2="244.915" y2="191.694" gradientUnits="userSpaceOnUse"><stop stop-color="#00A9AA"/><stop offset="1" stop-color="#00C66D"/></linearGradient><linearGradient id="cpaint61_linear" x1="228.04" y1="168.111" x2="228.04" y2="191.694" gradientUnits="userSpaceOnUse"><stop stop-color="#00A9AA"/><stop offset="1" stop-color="#00C66D"/></linearGradient><linearGradient id="cpaint62_linear" x1="29.996" y1="174.663" x2="29.996" y2="194.635" gradientUnits="userSpaceOnUse"><stop stop-color="#00A9AA"/><stop offset="1" stop-color="#00C66D"/></linearGradient><linearGradient id="cpaint63_linear" x1="16.57" y1="175.878" x2="16.57" y2="194.641" gradientUnits="userSpaceOnUse"><stop stop-color="#00A9AA"/><stop offset="1" stop-color="#00C66D"/></linearGradient></defs></svg><svg fill="none" viewBox="0 0 6 6" id="list-point" xmlns="http://www.w3.org/2000/svg"><circle cx="3" cy="3" r="3" fill="url(#dpaint0_linear)"/><defs><linearGradient id="dpaint0_linear" x1="3" y1="0" x2="3" y2="6" gradientUnits="userSpaceOnUse"><stop stop-color="#00A9AA"/><stop offset="1" stop-color="#00C66D"/></linearGradient></defs></svg><svg fill="none" viewBox="0 0 212 69" id="logo--appstore" xmlns="http://www.w3.org/2000/svg"><path d="M211.364 59.675c0 5.15-4.183 9.325-9.341 9.325H9.343C4.183 69 0 64.823 0 59.675V9.325C0 4.175 4.183 0 9.343 0h192.68c5.158 0 9.341 4.174 9.341 9.325v50.35z" fill="#000"/><path d="M55.117 45.608c-1.118 2.474-1.656 3.58-3.094 5.767-2.01 3.055-4.844 6.856-8.352 6.888-3.119.028-3.92-2.026-8.153-2.003-4.233.022-5.117 2.038-8.238 2.01-3.512-.032-6.197-3.467-8.207-6.523-5.62-8.54-6.209-18.56-2.742-23.887 2.463-3.786 6.348-6.004 10.005-6.004 3.72 0 6.06 2.038 9.138 2.038 2.982 0 4.803-2.041 9.106-2.041 3.251 0 6.696 1.766 9.153 4.822-8.048 4.404-6.744 15.868 1.384 18.933z" fill="#fff"/><path d="M41.312 18.447c1.56-2.004 2.748-4.828 2.32-7.72-2.551.174-5.54 1.798-7.282 3.909-1.583 1.918-2.887 4.765-2.38 7.53 2.782.085 5.667-1.574 7.342-3.72zM72.242 27.734L64.19 51.388h3.689l2.403-7.264h7.795l2.473 7.264h3.79l-8.087-23.654h-4.011zm1.91 3.89c.272 1.055.566 2.151.943 3.336l2.168 6.273h-6.177l2.14-6.314c.33-1.023.637-2.13.925-3.295zM94.76 33.866c-2.442 0-4.398.942-5.703 2.73l-.142-2.354h-3.28l.019.3c.095 1.466.136 3.078.136 5.394v18.232h3.587v-8.51c1.112 1.328 2.888 2.102 4.901 2.102 2.096 0 4.028-.818 5.433-2.307 1.571-1.655 2.4-4.038 2.4-6.885 0-2.515-.718-4.689-2.083-6.285a6.84 6.84 0 00-5.268-2.417zm-.896 2.964c3.197 0 4.629 2.955 4.629 5.884 0 3.776-1.827 6.123-4.765 6.123a4.34 4.34 0 01-4.224-3.32c-.083-.304-.127-.705-.127-1.16v-2.879c0-.259.057-.578.114-.885.02-.098.038-.196.05-.29.536-2.045 2.312-3.473 4.323-3.473zM113.224 33.866c-2.441 0-4.397.942-5.702 2.73l-.142-2.354h-3.28l.019.3c.098 1.466.139 3.078.139 5.394v18.232h3.587v-8.51c1.112 1.328 2.888 2.102 4.901 2.102 2.096 0 4.028-.818 5.437-2.307 1.567-1.655 2.396-4.038 2.396-6.885 0-2.515-.721-4.689-2.083-6.285-1.336-1.557-3.207-2.417-5.272-2.417zm-.892 2.964c3.194 0 4.625 2.955 4.625 5.884 0 3.776-1.826 6.123-4.762 6.123a4.342 4.342 0 01-4.223-3.32 4.607 4.607 0 01-.127-1.16v-2.879c0-.262.057-.578.114-.888.019-.095.035-.193.051-.287.532-2.045 2.308-3.473 4.322-3.473zM136.359 37.755c-3.347-1.292-4.42-2.31-4.42-4.19 0-1.582 1.26-3.178 4.075-3.178 2.324 0 3.809.806 4.211 1.055l.304.187 1.013-2.986-.199-.117c-.602-.35-2.315-1.17-5.221-1.17-4.572 0-7.767 2.696-7.767 6.55 0 3.11 2.001 5.284 6.294 6.842 3.043 1.134 4.176 2.297 4.176 4.29 0 2.257-1.747 3.657-4.559 3.657-1.83 0-3.714-.534-5.167-1.463l-.31-.2-.963 3.056.177.117c1.356.904 3.901 1.555 6.061 1.555 6.164 0 8.349-3.751 8.349-6.961-.007-3.309-1.758-5.35-6.054-7.044zM148.863 30.166l-3.518 1.103v2.973h-2.574v2.86h2.574v8.762c0 2.117.405 3.602 1.241 4.54.801.876 2.033 1.36 3.47 1.36 1.355 0 2.318-.27 2.771-.427l.199-.07-.171-2.866-.345.104c-.453.14-.918.193-1.668.193-1.39 0-1.982-.878-1.982-2.938v-8.658h4.325v-2.86h-4.325v-4.076h.003zM162.075 33.866c-5.019 0-8.52 3.738-8.52 9.088 0 5.188 3.391 8.812 8.248 8.812h.031c4.107 0 8.52-2.853 8.52-9.119 0-2.547-.788-4.736-2.286-6.329-1.504-1.605-3.577-2.452-5.993-2.452zm-.105 2.825c3.227 0 4.696 3.138 4.696 6.057 0 3.587-2.004 6.19-4.762 6.19h-.035c-2.72 0-4.695-2.56-4.695-6.089 0-3.064 1.485-6.158 4.796-6.158zM181.338 34.03l-.215-.053a3.441 3.441 0 00-.893-.11c-1.878 0-3.559 1.102-4.496 2.88l-.105-2.505h-3.216l.022.3c.095 1.416.136 3.008.136 5.154l-.032 11.691h3.588v-9.122c0-.496.034-.967.098-1.387.405-2.19 1.887-3.606 3.774-3.606.367 0 .655.029.962.06l.383.042V34.03h-.006zM189.402 33.831c-4.774 0-8.108 3.808-8.108 9.258 0 5.249 3.318 8.642 8.45 8.642 2.701 0 4.579-.59 5.677-1.087l.216-.098-.691-2.666-.297.12c-.979.398-2.277.802-4.493.802-1.558 0-5.151-.512-5.37-5.188l11.576.035.047-.228c.073-.363.108-.853.108-1.495 0-3.734-1.865-8.095-7.115-8.095zm-.24 2.724c1.092 0 1.979.338 2.631 1.002 1.032 1.048 1.213 2.59 1.235 3.33h-8.178c.335-2.067 1.63-4.332 4.312-4.332zM64.19 11.574c1.001-.133 2.166-.23 3.44-.23 2.31 0 3.957.464 5.05 1.377 1.126.913 1.775 2.224 1.775 4.035 0 1.826-.649 3.32-1.795 4.35-1.184 1.047-3.106 1.612-5.531 1.612-1.165 0-2.109-.031-2.942-.132V11.574h.004zm1.628 9.918c.405.067.997.067 1.627.067 3.439.016 5.307-1.729 5.307-4.75.019-2.673-1.646-4.319-5.047-4.319-.833 0-1.46.067-1.887.149v8.853zM80.22 22.804c-2.403 0-4.29-1.596-4.29-4.136 0-2.693 1.979-4.27 4.44-4.27 2.57 0 4.308 1.678 4.308 4.121 0 2.99-2.311 4.285-4.439 4.285h-.019zm.057-1.097c1.555 0 2.72-1.311 2.72-3.14 0-1.363-.76-3.072-2.682-3.072-1.906 0-2.738 1.596-2.738 3.122 0 1.76 1.11 3.09 2.681 3.09h.02zM87.253 14.582l1.203 4.07c.24.897.481 1.744.646 2.575h.054c.203-.816.5-1.678.795-2.557l1.46-4.085h1.367l1.387 4.02c.332.947.592 1.81.794 2.625h.054c.15-.815.39-1.662.684-2.607l1.276-4.035h1.609l-2.885 8.039h-1.472l-1.368-3.836c-.313-.914-.573-1.71-.794-2.658h-.038c-.222.964-.5 1.81-.814 2.673l-1.44 3.82h-1.48l-2.7-8.038h1.662v-.006zM100.219 16.759c0-.847-.019-1.51-.073-2.177h1.444l.092 1.311h.038c.443-.749 1.478-1.494 2.957-1.494 1.238 0 3.163.663 3.163 3.422v4.8h-1.628v-4.633c0-1.295-.538-2.392-2.07-2.392-1.055 0-1.887.68-2.182 1.495a2 2 0 00-.111.682v4.85h-1.627V16.76h-.003zM110.483 10.828h1.628V22.62h-1.628V10.828zM118.453 22.804c-2.403 0-4.29-1.596-4.29-4.136 0-2.693 1.978-4.27 4.439-4.27 2.57 0 4.309 1.678 4.309 4.121 0 2.99-2.312 4.285-4.439 4.285h-.019zm.057-1.097c1.554 0 2.719-1.311 2.719-3.14 0-1.363-.759-3.072-2.681-3.072-1.906 0-2.739 1.596-2.739 3.122 0 1.76 1.111 3.09 2.682 3.09h.019zM131.269 20.693c0 .698.038 1.378.13 1.927h-1.46l-.148-1.014h-.054c-.481.632-1.463 1.194-2.736 1.194-1.811 0-2.735-1.146-2.735-2.31 0-1.943 1.921-3.004 5.379-2.988v-.162c0-.663-.203-1.877-2.033-1.86-.851 0-1.719.214-2.349.596l-.37-.98c.74-.413 1.83-.697 2.96-.697 2.754 0 3.419 1.678 3.419 3.289v3.005h-.003zm-1.589-2.174c-1.776-.032-3.79.25-3.79 1.81 0 .964.703 1.397 1.516 1.397 1.185 0 1.941-.663 2.201-1.346.057-.148.076-.316.076-.464v-1.397h-.003zM141.609 10.828v9.716c0 .715.019 1.53.073 2.076h-1.46l-.072-1.393h-.038c-.501.897-1.574 1.577-3.034 1.577-2.165 0-3.846-1.643-3.846-4.086-.019-2.692 1.849-4.32 4.011-4.32 1.387 0 2.311.582 2.701 1.214h.035v-4.784h1.63zm-1.627 7.027c0-.199-.019-.432-.073-.631-.241-.914-1.127-1.678-2.349-1.678-1.685 0-2.682 1.327-2.682 3.09 0 1.643.906 2.99 2.644 2.99 1.092 0 2.089-.664 2.384-1.745.057-.2.073-.398.073-.632v-1.393h.003zM151.871 22.804c-2.403 0-4.29-1.596-4.29-4.136 0-2.693 1.979-4.27 4.439-4.27 2.571 0 4.309 1.678 4.309 4.121 0 2.99-2.311 4.285-4.439 4.285h-.019zm.057-1.097c1.555 0 2.717-1.311 2.717-3.14 0-1.363-.757-3.072-2.682-3.072-1.906 0-2.736 1.596-2.736 3.122 0 1.76 1.109 3.09 2.682 3.09h.019zM158.384 16.759c0-.847-.019-1.51-.072-2.177h1.443l.092 1.311h.035c.443-.749 1.479-1.494 2.957-1.494 1.238 0 3.163.663 3.163 3.422v4.8h-1.627v-4.633c0-1.295-.535-2.392-2.071-2.392-1.054 0-1.887.68-2.181 1.495a2 2 0 00-.111.682v4.85h-1.628V16.76zM174.528 12.655v1.927h2.331v1.112h-2.331v4.335c0 .996.314 1.561 1.223 1.561.443 0 .702-.031.943-.098l.073 1.113c-.314.098-.814.199-1.444.199-.757 0-1.368-.234-1.757-.613-.443-.449-.627-1.163-.627-2.11v-4.387h-1.387v-1.112h1.387v-1.479l1.589-.448zM178.692 10.828h1.627v5.015h.038a2.778 2.778 0 011.165-1.03 3.446 3.446 0 011.666-.414c1.2 0 3.125.663 3.125 3.438v4.783h-1.631v-4.616c0-1.311-.535-2.392-2.07-2.392a2.334 2.334 0 00-2.182 1.463c-.092.2-.111.414-.111.698v4.85h-1.627V10.829zM189.88 18.85c.038 1.979 1.425 2.79 3.053 2.79 1.165 0 1.887-.182 2.479-.397l.294 1.03c-.573.234-1.573.515-2.995.515-2.739 0-4.401-1.646-4.401-4.054 0-2.443 1.608-4.351 4.217-4.351 2.923 0 3.679 2.31 3.679 3.788 0 .3-.019.531-.053.699l-6.273-.02zm4.753-1.045c.019-.913-.424-2.376-2.239-2.376-1.665 0-2.368 1.362-2.498 2.376h4.737z" fill="#fff"/></svg><svg fill="none" viewBox="0 0 16 17" id="logo--facebook" xmlns="http://www.w3.org/2000/svg"><path fill-rule="evenodd" clip-rule="evenodd" d="M3 .004h10a3 3 0 013 3v10a3 3 0 01-3 3H3a3 3 0 01-3-3v-10a3 3 0 013-3zm8 10.461h1.556L13 8.39h-2V7.004c-.105-.587.06-1.008.889-.923H13V4.004c-.188.058-.834 0-1.556 0-1.597 0-2.67.994-2.666 2.77v1.615H7v2.076h1.778v5.539H11v-5.539z" fill="#333"/></svg><svg fill="none" viewBox="0 0 229 69" id="logo--google-play" xmlns="http://www.w3.org/2000/svg"><path d="M220.519 69H8.481C3.731 69 0 65.205 0 60.375V8.625C0 3.795 3.732 0 8.481 0H220.52C225.268 0 229 3.795 229 8.625v51.75c0 4.83-3.732 8.625-8.481 8.625z" fill="#000"/><path d="M220.519 1.357c3.901 0 7.124 3.223 7.124 7.124v50.89c0 3.9-3.223 7.124-7.124 7.124H8.481c-3.901 0-7.124-3.223-7.124-7.125V8.481c0-3.901 3.223-7.124 7.124-7.124H220.52zm0-1.357H8.481C3.731 0 0 3.901 0 8.481v50.89c0 4.749 3.732 8.48 8.481 8.48H220.52c4.749 0 8.481-3.731 8.481-8.48V8.48C229 3.901 225.268 0 220.519 0z" fill="#000"/><path d="M80.404 17.598c0 1.357-.339 2.544-1.187 3.392-1.018 1.018-2.205 1.527-3.732 1.527-1.527 0-2.714-.509-3.732-1.527-1.018-1.017-1.526-2.205-1.526-3.731 0-1.527.508-2.715 1.526-3.732C72.771 12.509 73.958 12 75.485 12c.679 0 1.357.17 2.036.509.678.34 1.187.678 1.526 1.187l-.848.848c-.678-.848-1.526-1.187-2.714-1.187-1.018 0-2.035.34-2.714 1.187-.848.679-1.187 1.697-1.187 2.884 0 1.188.339 2.205 1.187 2.884.848.678 1.696 1.187 2.714 1.187 1.188 0 2.036-.339 2.884-1.187a2.81 2.81 0 00.848-2.036h-3.732V16.92h4.92v.679zm7.803-4.241h-4.58v3.223h4.241v1.187h-4.24v3.223h4.58v1.357H82.27V12.17h5.937v1.187zm5.598 8.99h-1.357v-8.99h-2.884V12.17h7.125v1.187h-2.884v8.99zm7.803 0V12.17h1.357v10.177h-1.357zm7.124 0h-1.357v-8.99h-2.883V12.17h6.955v1.187h-2.884v8.99h.169zm16.115-1.357c-1.017 1.018-2.205 1.527-3.732 1.527-1.526 0-2.714-.509-3.731-1.527-1.018-1.017-1.527-2.205-1.527-3.731 0-1.527.509-2.715 1.527-3.732 1.017-1.018 2.205-1.527 3.731-1.527 1.527 0 2.715.509 3.732 1.527 1.018 1.017 1.527 2.205 1.527 3.732 0 1.526-.509 2.714-1.527 3.731zm-6.446-.848c.679.679 1.697 1.188 2.714 1.188 1.018 0 2.036-.34 2.715-1.188a4.094 4.094 0 001.187-2.883c0-1.188-.339-2.206-1.187-2.884-.679-.679-1.697-1.188-2.715-1.188-1.017 0-2.035.34-2.714 1.188a4.094 4.094 0 00-1.187 2.884c0 1.187.339 2.205 1.187 2.883zm9.839 2.205V12.17h1.527l4.919 7.972V12.17h1.357v10.177h-1.357l-5.259-8.311v8.311h-1.187zM115.518 37.275c-4.071 0-7.294 3.053-7.294 7.294 0 4.071 3.223 7.294 7.294 7.294s7.294-3.053 7.294-7.294c0-4.41-3.223-7.294-7.294-7.294zm0 11.535c-2.205 0-4.071-1.866-4.071-4.41 0-2.545 1.866-4.411 4.071-4.411 2.205 0 4.071 1.696 4.071 4.41 0 2.545-1.866 4.41-4.071 4.41zM99.742 37.275c-4.07 0-7.294 3.053-7.294 7.294 0 4.071 3.223 7.294 7.294 7.294s7.294-3.053 7.294-7.294c0-4.41-3.223-7.294-7.294-7.294zm0 11.535c-2.205 0-4.07-1.866-4.07-4.41 0-2.545 1.865-4.411 4.07-4.411s4.071 1.696 4.071 4.41c0 2.545-1.866 4.41-4.07 4.41zm-18.829-9.33v3.053h7.294c-.17 1.697-.848 3.054-1.696 3.902-1.018 1.018-2.714 2.205-5.598 2.205-4.58 0-7.972-3.562-7.972-8.142s3.562-8.142 7.972-8.142c2.375 0 4.241 1.017 5.598 2.205l2.205-2.206c-1.866-1.696-4.24-3.053-7.633-3.053-6.107 0-11.365 5.09-11.365 11.196s5.258 11.195 11.365 11.195c3.393 0 5.767-1.017 7.803-3.223 2.035-2.035 2.714-4.919 2.714-7.124 0-.679 0-1.357-.17-1.866H80.913zm77.012 2.375c-.678-1.697-2.375-4.58-6.106-4.58-3.732 0-6.786 2.883-6.786 7.294 0 4.071 3.054 7.294 7.125 7.294 3.223 0 5.258-2.036 5.937-3.223l-2.375-1.696c-.848 1.187-1.866 2.035-3.562 2.035-1.697 0-2.714-.678-3.562-2.205l9.668-4.071-.339-.848zm-9.838 2.375c0-2.714 2.205-4.241 3.732-4.241 1.187 0 2.374.678 2.714 1.527l-6.446 2.714zm-7.973 6.954h3.223V29.981h-3.223v21.203zm-5.089-12.383c-.848-.848-2.205-1.696-3.901-1.696-3.563 0-6.955 3.223-6.955 7.294s3.223 7.125 6.955 7.125c1.696 0 3.053-.849 3.732-1.697h.169v1.018c0 2.714-1.526 4.24-3.901 4.24-1.866 0-3.223-1.356-3.563-2.544l-2.714 1.188c.849 1.866 2.884 4.24 6.446 4.24 3.732 0 6.786-2.205 6.786-7.463V37.614h-3.054v1.188zm-3.732 10.009c-2.205 0-4.071-1.866-4.071-4.41 0-2.545 1.866-4.411 4.071-4.411 2.206 0 3.902 1.866 3.902 4.41 0 2.545-1.696 4.41-3.902 4.41zm41.39-18.83h-7.633v21.204h3.223v-7.972h4.41c3.562 0 6.955-2.545 6.955-6.616 0-4.07-3.393-6.615-6.955-6.615zm.17 10.178h-4.58v-7.294h4.58c2.374 0 3.731 2.036 3.731 3.563-.169 1.866-1.526 3.731-3.731 3.731zm19.507-3.053c-2.375 0-4.75 1.018-5.598 3.223l2.884 1.188c.678-1.188 1.696-1.527 2.884-1.527 1.696 0 3.223 1.018 3.392 2.714v.17c-.509-.34-1.866-.849-3.223-.849-3.053 0-6.106 1.697-6.106 4.75 0 2.884 2.544 4.75 5.258 4.75 2.205 0 3.223-1.018 4.071-2.036h.17v1.696h3.053v-8.142c-.339-3.732-3.223-5.937-6.785-5.937zm-.339 11.705c-1.018 0-2.545-.51-2.545-1.866 0-1.697 1.866-2.206 3.393-2.206 1.357 0 2.035.34 2.884.679-.34 2.036-2.036 3.393-3.732 3.393zm17.811-11.196l-3.562 9.16h-.17l-3.732-9.16h-3.392l5.597 12.892-3.223 7.124h3.223l8.651-20.016h-3.392zm-28.498 13.57h3.223V29.981h-3.223v21.203z" fill="#fff"/><path d="M17.641 13.599c-.508.508-.678 1.357-.678 2.374v37.489c0 1.017.34 1.865.848 2.374l.17.17 21.034-21.034v-.34L17.64 13.6z" fill="url(#gpaint0_linear)"/><path d="M45.8 42.096l-6.955-6.954v-.51l6.955-6.954.17.17 8.312 4.749c2.374 1.357 2.374 3.562 0 4.92l-8.482 4.58z" fill="url(#gpaint1_linear)"/><path d="M45.97 41.927l-7.125-7.125-21.203 21.204c.848.848 2.035.848 3.562.17l24.766-14.25" fill="url(#gpaint2_linear)"/><path d="M45.97 27.678l-24.766-14.08c-1.527-.848-2.714-.678-3.562.17l21.203 21.034 7.125-7.124z" fill="url(#gpaint3_linear)"/><path opacity=".2" d="M45.8 41.757l-24.596 13.91c-1.357.848-2.545.678-3.393 0l-.17.17.17.169c.848.678 2.036.848 3.393 0L45.8 41.757z" fill="#000"/><path opacity=".2" d="M17.641 55.667c-.508-.51-.678-1.357-.678-2.375v.17c0 1.017.34 1.865.848 2.374v-.17h-.17zm36.64-18.66l-8.481 4.75.17.17 8.311-4.75c1.188-.678 1.697-1.526 1.697-2.375 0 .849-.679 1.527-1.697 2.206z" fill="#000"/><path opacity=".2" d="M21.204 13.768l33.078 18.829c1.018.678 1.696 1.357 1.696 2.205 0-.848-.509-1.696-1.696-2.375L21.204 13.6c-2.375-1.358-4.24-.34-4.24 2.374v.17c0-2.545 1.865-3.732 4.24-2.375z" fill="#fff"/><defs><linearGradient id="gpaint0_linear" x1="36.979" y1="15.651" x2="8.51" y2="44.118" gradientUnits="userSpaceOnUse"><stop stop-color="#00A0FF"/><stop offset=".007" stop-color="#00A1FF"/><stop offset=".26" stop-color="#00BEFF"/><stop offset=".512" stop-color="#00D2FF"/><stop offset=".76" stop-color="#00DFFF"/><stop offset="1" stop-color="#00E3FF"/></linearGradient><linearGradient id="gpaint1_linear" x1="57.392" y1="34.804" x2="16.347" y2="34.804" gradientUnits="userSpaceOnUse"><stop stop-color="#FFE000"/><stop offset=".409" stop-color="#FFBD00"/><stop offset=".775" stop-color="orange"/><stop offset="1" stop-color="#FF9C00"/></linearGradient><linearGradient id="gpaint2_linear" x1="42.114" y1="38.697" x2="3.51" y2="77.301" gradientUnits="userSpaceOnUse"><stop stop-color="#FF3A44"/><stop offset="1" stop-color="#C31162"/></linearGradient><linearGradient id="gpaint3_linear" x1="12.378" y1="1.175" x2="29.617" y2="18.414" gradientUnits="userSpaceOnUse"><stop stop-color="#32A071"/><stop offset=".069" stop-color="#2DA771"/><stop offset=".476" stop-color="#15CF74"/><stop offset=".801" stop-color="#06E775"/><stop offset="1" stop-color="#00F076"/></linearGradient></defs></svg><svg fill="none" viewBox="0 0 16 16" id="logo--instagram" xmlns="http://www.w3.org/2000/svg"><path d="M11.233 0H4.766A4.772 4.772 0 000 4.766v6.467A4.772 4.772 0 004.766 16h6.467A4.772 4.772 0 0016 11.233V4.766A4.772 4.772 0 0011.233 0zm3.157 11.233a3.157 3.157 0 01-3.157 3.157H4.766a3.157 3.157 0 01-3.156-3.157V4.766A3.157 3.157 0 014.766 1.61h6.467a3.157 3.157 0 013.157 3.156v6.467z" fill="#333"/><path d="M8 3.862A4.143 4.143 0 003.862 8 4.143 4.143 0 008 12.138 4.143 4.143 0 0012.138 8 4.143 4.143 0 008 3.862zm0 6.667A2.529 2.529 0 118 5.47a2.529 2.529 0 010 5.058zM12.146 4.885a.992.992 0 100-1.984.992.992 0 000 1.984z" fill="#333"/></svg><svg fill="none" viewBox="0 0 19 17" id="logo--twitter" xmlns="http://www.w3.org/2000/svg"><path d="M19 1.898a7.59 7.59 0 01-2.239.636A4.033 4.033 0 0018.474.299a7.641 7.641 0 01-2.475.98A3.825 3.825 0 0013.154.004c-2.152 0-3.898 1.808-3.898 4.038 0 .317.034.626.101.92-3.24-.168-6.111-1.775-8.034-4.219a4.127 4.127 0 00-.528 2.03c0 1.401.688 2.638 1.734 3.362A3.77 3.77 0 01.763 5.63v.051c0 1.957 1.344 3.589 3.126 3.96a3.787 3.787 0 01-1.76.07c.497 1.605 1.937 2.772 3.642 2.806A7.658 7.658 0 010 14.189a10.76 10.76 0 005.975 1.815c7.17 0 11.09-6.155 11.09-11.493 0-.175 0-.35-.012-.523A8.118 8.118 0 0019 1.898H19z" fill="#333"/></svg></svg>